<svg width="195" height="195" viewBox="0 0 195 195" fill="none" xmlns="http://www.w3.org/2000/svg">
<g clip-path="url(#clip0_62_49)">
<path d="M97.5 192.81C150.138 192.81 192.81 150.138 192.81 97.5001C192.81 44.8618 150.138 2.19005 97.5 2.19005C44.8617 2.19005 2.18994 44.8618 2.18994 97.5001C2.18994 150.138 44.8617 192.81 97.5 192.81Z" fill="#F7A8B8"/>
<path fill-rule="evenodd" clip-rule="evenodd" d="M97.5003 7.97076e-05C120.058 -0.000427073 141.918 7.82071 159.356 22.1309C176.793 36.441 188.73 56.3548 193.131 78.479C197.532 100.603 194.126 123.569 183.492 143.463C172.859 163.358 155.657 178.95 134.816 187.582C113.975 196.215 90.7863 197.354 69.1998 190.806C47.6133 184.258 28.9651 170.428 16.4326 151.672C3.90003 132.916 -1.74136 110.395 0.469626 87.9457C2.68061 65.4966 12.6072 44.5086 28.5579 28.5578C37.6015 19.4906 48.3478 12.3 60.1792 7.39907C72.0107 2.49818 84.694 -0.0163203 97.5003 7.97076e-05ZM163.346 31.654C148.112 16.42 128.068 6.93942 106.627 4.82762C85.187 2.71582 63.6778 8.10348 45.7646 20.0726C27.8513 32.0418 14.6424 49.8518 8.38836 70.4681C2.13437 91.0844 3.2223 113.231 11.4668 133.136C19.7112 153.04 34.6021 169.469 53.6022 179.625C72.6023 189.781 94.5361 193.035 115.666 188.832C136.796 184.629 155.815 173.229 169.483 156.575C183.15 139.922 190.62 119.044 190.62 97.5002C190.636 85.2691 188.235 73.1555 183.554 61.8554C178.874 50.5553 172.006 40.2916 163.346 31.654Z" fill="#231F20"/>
<path fill-rule="evenodd" clip-rule="evenodd" d="M98.053 133.715C80.1696 143.8 57.7858 154.801 35.4386 149.507L47.7032 136.5C3.49974 1.46717 191.71 0.829281 147.297 136.501L159.562 149.509C137.215 154.801 115.936 143.8 98.053 133.715Z" fill="#FFF685"/>
<path fill-rule="evenodd" clip-rule="evenodd" d="M98.0526 136.215C88.8661 141.604 79.1551 146.043 69.0696 149.466C58.1014 153.286 46.2978 154.037 34.9339 151.638C34.5483 151.546 34.1947 151.351 33.911 151.075C33.6273 150.798 33.424 150.449 33.3229 150.066C33.2217 149.683 33.2265 149.279 33.3367 148.898C33.4468 148.518 33.6583 148.174 33.9485 147.904L45.2292 135.941C32.208 95.1084 40.2129 66.3097 56.6382 49.697C67.5347 38.885 82.2602 32.8139 97.6105 32.8045C112.961 32.7952 127.694 38.8486 138.603 49.6473C154.931 66.2322 162.828 95.014 149.773 135.942L161.153 148.01C161.415 148.29 161.6 148.633 161.688 149.006C161.776 149.379 161.764 149.769 161.654 150.136C161.544 150.503 161.339 150.835 161.06 151.097C160.781 151.36 160.438 151.545 160.065 151.634L160.066 151.638C148.881 154.047 137.246 153.292 126.466 149.457C116.582 145.989 107.065 141.553 98.0526 136.215ZM67.7697 145.291C77.9446 141.814 87.7343 137.299 96.9835 131.816C97.31 131.632 97.6784 131.535 98.0531 131.535C98.4277 131.535 98.7961 131.632 99.1226 131.816C108.212 137.249 117.818 141.766 127.8 145.299C136.601 148.383 146.005 149.349 155.249 148.118L145.764 138.059C145.474 137.774 145.27 137.414 145.174 137.02C145.077 136.625 145.093 136.212 145.218 135.825C158.235 96.0612 150.939 68.4034 135.489 52.7092C125.402 42.7423 111.791 37.1572 97.6102 37.1665C83.4298 37.1758 69.8255 42.7788 59.7517 52.7589C44.2017 68.4858 36.7981 96.1602 49.782 135.824C49.9034 136.197 49.921 136.595 49.8354 136.977C49.7497 137.36 49.5628 137.712 49.2941 137.997L39.7528 148.116C49.1848 149.339 58.7719 148.373 67.7697 145.291Z" fill="#231F20"/>
<path fill-rule="evenodd" clip-rule="evenodd" d="M140.335 182.581C127.044 189.259 112.375 192.737 97.5 192.737C82.6252 192.737 67.9564 189.259 54.6647 182.581C54.5517 181.31 54.4895 180.024 54.4895 178.723C54.4895 167.316 59.0209 156.376 67.0868 148.311C75.1527 140.245 86.0924 135.713 97.4993 135.713C108.906 135.713 119.846 140.245 127.912 148.311C135.978 156.376 140.509 167.316 140.509 178.723C140.51 180.024 140.448 181.31 140.335 182.581Z" fill="#00AEEF"/>
<path fill-rule="evenodd" clip-rule="evenodd" d="M141.319 184.532C127.728 191.381 112.72 194.948 97.5 194.948C82.2803 194.948 67.2724 191.381 53.6808 184.532C53.3279 184.354 53.0299 184.084 52.8186 183.75C52.6073 183.416 52.4906 183.031 52.481 182.636C52.4245 181.981 52.3811 181.353 52.3537 180.758C52.3189 179.991 52.3003 179.307 52.3003 178.723C52.3266 166.753 57.1004 155.281 65.5741 146.826C74.0478 138.371 85.5295 133.623 97.5 133.623C109.47 133.623 120.952 138.371 129.426 146.826C137.9 155.281 142.673 166.753 142.7 178.723C142.7 179.307 142.681 179.991 142.646 180.758C142.617 181.393 142.57 182.066 142.508 182.77C142.476 183.14 142.35 183.496 142.141 183.804C141.933 184.112 141.649 184.361 141.317 184.528L141.319 184.532ZM119.039 188.041C125.677 186.468 132.121 184.166 138.252 181.176L138.284 180.569C138.306 180.051 138.32 179.439 138.32 178.723C138.332 173.354 137.286 168.036 135.24 163.072C133.194 158.109 130.189 153.598 126.397 149.797C122.606 145.997 118.102 142.982 113.143 140.924C108.184 138.867 102.868 137.808 97.5 137.808C92.1315 137.808 86.8157 138.867 81.857 140.924C76.8984 142.982 72.3942 145.997 68.6025 149.797C64.8108 153.598 61.806 158.109 59.7602 163.072C57.7144 168.036 56.6677 173.354 56.6802 178.723C56.6802 179.439 56.6933 180.051 56.7163 180.569L56.7478 181.176C76.103 190.564 98.104 192.988 119.039 188.041Z" fill="#231F20"/>
<path d="M114.543 148.256C116.07 138.843 109.678 129.974 100.266 128.447C90.8532 126.92 81.9846 133.312 80.4571 142.724C78.9297 152.137 85.3218 161.005 94.7344 162.533C104.147 164.06 113.016 157.668 114.543 148.256Z" fill="#F9DDD1"/>
<path fill-rule="evenodd" clip-rule="evenodd" d="M97.5001 126.034C102.002 126.034 106.364 127.594 109.844 130.45C113.325 133.306 115.707 137.279 116.585 141.695C117.464 146.11 116.784 150.693 114.662 154.663C112.541 158.634 109.108 161.745 104.949 163.468C100.79 165.191 96.1621 165.419 91.8542 164.112C87.5462 162.805 83.8247 160.045 81.3236 156.302C78.8225 152.559 77.6966 148.065 78.1378 143.585C78.579 139.105 80.5599 134.916 83.7431 131.733C85.5476 129.924 87.6919 128.489 90.0528 127.511C92.4137 126.533 94.9446 126.031 97.5001 126.034ZM108.161 134.829C105.694 132.363 102.449 130.828 98.9774 130.485C95.506 130.143 92.0233 131.016 89.1229 132.953C86.2225 134.891 84.0837 137.775 83.071 141.113C82.0583 144.451 82.2343 148.037 83.5691 151.259C84.9039 154.482 87.3148 157.142 90.3911 158.787C93.4674 160.431 97.0187 160.958 100.44 160.277C103.861 159.597 106.941 157.751 109.154 155.055C111.366 152.358 112.576 148.978 112.576 145.49C112.579 143.51 112.19 141.549 111.432 139.719C110.674 137.89 109.563 136.228 108.161 134.829Z" fill="#231F20"/>
<path fill-rule="evenodd" clip-rule="evenodd" d="M139.139 103.703C141.274 103.703 143.362 104.336 145.138 105.523C146.914 106.709 148.298 108.396 149.115 110.369C149.932 112.342 150.146 114.513 149.73 116.608C149.313 118.703 148.284 120.627 146.774 122.137C145.264 123.647 143.34 124.676 141.245 125.092C139.151 125.509 136.979 125.295 135.006 124.478C133.033 123.661 131.347 122.277 130.16 120.501C128.973 118.725 128.34 116.637 128.34 114.501C128.34 113.083 128.619 111.679 129.162 110.369C129.705 109.059 130.5 107.868 131.503 106.866C132.506 105.863 133.696 105.068 135.006 104.525C136.316 103.982 137.72 103.703 139.139 103.703Z" fill="#F9DDD1"/>
<path fill-rule="evenodd" clip-rule="evenodd" d="M139.139 101.513C142.144 101.513 145.056 102.555 147.379 104.461C149.702 106.367 151.292 109.02 151.879 111.968C152.465 114.915 152.011 117.974 150.595 120.625C149.178 123.275 146.887 125.352 144.11 126.502C141.334 127.652 138.245 127.804 135.369 126.932C132.493 126.06 130.009 124.217 128.339 121.719C126.67 119.22 125.918 116.22 126.213 113.229C126.507 110.238 127.83 107.443 129.955 105.318C131.159 104.11 132.591 103.152 134.167 102.499C135.743 101.846 137.433 101.511 139.139 101.513ZM145.226 108.414C143.818 107.005 141.964 106.128 139.982 105.932C137.999 105.737 136.01 106.235 134.353 107.341C132.697 108.448 131.475 110.094 130.897 112.001C130.318 113.907 130.418 115.955 131.181 117.796C131.943 119.637 133.32 121.156 135.077 122.095C136.834 123.034 138.862 123.335 140.816 122.947C142.77 122.558 144.529 121.504 145.792 119.964C147.056 118.424 147.747 116.494 147.747 114.501C147.749 113.371 147.527 112.251 147.094 111.206C146.661 110.161 146.027 109.212 145.226 108.414Z" fill="#231F20"/>
<path fill-rule="evenodd" clip-rule="evenodd" d="M55.8625 103.703C57.9982 103.703 60.086 104.336 61.8618 105.523C63.6377 106.709 65.0218 108.396 65.8391 110.369C66.6565 112.342 66.8703 114.513 66.4537 116.608C66.0371 118.703 65.0086 120.627 63.4984 122.137C61.9883 123.647 60.0642 124.676 57.9694 125.092C55.8747 125.509 53.7035 125.295 51.7303 124.478C49.7572 123.661 48.0707 122.277 46.8841 120.501C45.6975 118.725 45.0642 116.637 45.0642 114.501C45.0642 113.083 45.3434 111.679 45.8861 110.369C46.4287 109.059 47.2241 107.869 48.2268 106.866C49.2295 105.863 50.4199 105.068 51.7301 104.525C53.0402 103.982 54.4444 103.703 55.8625 103.703Z" fill="#F9DDD1"/>
<path fill-rule="evenodd" clip-rule="evenodd" d="M55.8625 101.513C58.8677 101.513 61.78 102.555 64.1032 104.461C66.4264 106.367 68.0168 109.02 68.6032 111.968C69.1897 114.915 68.736 117.975 67.3195 120.625C65.903 123.276 63.6112 125.353 60.8348 126.503C58.0584 127.653 54.9691 127.805 52.0932 126.933C49.2174 126.06 46.733 124.218 45.0634 121.719C43.3937 119.221 42.6421 116.22 42.9367 113.229C43.2313 110.239 44.5538 107.443 46.6788 105.318C47.8835 104.11 49.315 103.152 50.891 102.499C52.4671 101.846 54.1566 101.511 55.8625 101.513ZM61.9502 108.414C60.5418 107.005 58.6882 106.127 56.7055 105.932C54.7228 105.736 52.7336 106.234 51.0768 107.34C49.42 108.447 48.1982 110.094 47.6196 112C47.0409 113.907 47.1412 115.955 47.9034 117.796C48.6656 119.637 50.0426 121.156 51.7996 122.095C53.5566 123.035 55.5849 123.336 57.539 122.947C59.4931 122.559 61.252 121.505 62.516 119.965C63.78 118.425 64.4709 116.494 64.4709 114.501C64.4724 113.371 64.2505 112.251 63.8179 111.206C63.3853 110.161 62.7506 109.212 61.9502 108.414Z" fill="#231F20"/>
<path d="M97.5001 145.9C121.084 145.9 140.202 126.781 140.202 103.198C140.202 79.6142 121.084 60.496 97.5001 60.496C73.9165 60.496 54.7982 79.6142 54.7982 103.198C54.7982 126.781 73.9165 145.9 97.5001 145.9Z" fill="#F9DDD1"/>
<path fill-rule="evenodd" clip-rule="evenodd" d="M97.5001 58.3059C107.887 58.3057 117.952 61.9069 125.981 68.4959C134.01 75.085 139.506 84.2542 141.532 94.4412C143.559 104.628 141.99 115.203 137.094 124.363C132.198 133.523 124.277 140.702 114.681 144.677C105.085 148.652 94.4079 149.176 84.4685 146.161C74.5292 143.146 65.9429 136.777 60.1726 128.141C54.4022 119.505 51.805 109.135 52.8233 98.7985C53.8416 88.4619 58.4125 78.7983 65.7572 71.4541C69.9211 67.2792 74.869 63.9684 80.3165 61.7118C85.7639 59.4552 91.6037 58.2985 97.5001 58.3059ZM126.147 74.5514C119.519 67.9235 110.798 63.7987 101.471 62.8799C92.1427 61.961 82.7849 64.3048 74.9914 69.512C67.198 74.7192 61.4512 82.4676 58.7303 91.4369C56.0093 100.406 56.4825 110.042 60.0693 118.701C63.6561 127.361 70.1345 134.509 78.4007 138.927C86.6669 143.345 96.2094 144.761 105.402 142.933C114.595 141.104 122.87 136.145 128.816 128.899C134.762 121.654 138.012 112.571 138.012 103.198C138.019 97.8767 136.974 92.6066 134.938 87.6905C132.902 82.7744 129.914 78.3092 126.147 74.5514Z" fill="#231F20"/>
<path fill-rule="evenodd" clip-rule="evenodd" d="M71.2739 56.4139L56.5922 72.0913L62.1447 78.642C74.1292 89.2896 91.8388 93.6642 113.349 93.7253C110.372 92.2498 107.771 90.1164 105.741 87.4866C103.711 84.8568 102.307 81.7996 101.633 78.5465C117.311 86.6051 127.633 88.392 140.162 90.4683L146.967 91.3125L125.652 56.4139L99.4554 46.8882L71.2739 56.4139Z" fill="#FFF685"/>
<path fill-rule="evenodd" clip-rule="evenodd" d="M79.2279 108.958C80.3243 108.958 81.3961 109.283 82.3077 109.892C83.2193 110.501 83.9299 111.367 84.3494 112.38C84.769 113.393 84.8789 114.507 84.665 115.583C84.4511 116.658 83.9232 117.646 83.1479 118.421C82.3727 119.196 81.385 119.724 80.3097 119.938C79.2344 120.152 78.1198 120.042 77.1069 119.623C76.0939 119.203 75.2282 118.493 74.619 117.581C74.0099 116.67 73.6848 115.598 73.6848 114.501C73.6848 113.774 73.8281 113.053 74.1067 112.38C74.3852 111.708 74.7935 111.097 75.3083 110.582C75.823 110.067 76.4341 109.659 77.1066 109.38C77.7791 109.102 78.5 108.958 79.2279 108.958Z" fill="#231F20"/>
<path fill-rule="evenodd" clip-rule="evenodd" d="M115.771 108.958C116.867 108.958 117.939 109.283 118.851 109.892C119.762 110.501 120.473 111.367 120.892 112.38C121.312 113.393 121.422 114.508 121.208 115.583C120.994 116.658 120.466 117.646 119.691 118.421C118.915 119.196 117.928 119.724 116.852 119.938C115.777 120.152 114.663 120.042 113.65 119.623C112.637 119.203 111.771 118.493 111.162 117.581C110.553 116.67 110.228 115.598 110.228 114.501C110.228 113.774 110.371 113.053 110.65 112.38C110.928 111.708 111.336 111.096 111.851 110.582C112.366 110.067 112.977 109.659 113.65 109.38C114.322 109.101 115.043 108.958 115.771 108.958Z" fill="#231F20"/>
<path fill-rule="evenodd" clip-rule="evenodd" d="M59.1081 78.8995C58.9125 78.6894 58.7602 78.4429 58.66 78.174C58.5597 77.9051 58.5134 77.6191 58.5236 77.3323C58.5339 77.0455 58.6005 76.7635 58.7198 76.5024C58.839 76.2414 59.0085 76.0064 59.2185 75.8108C59.4286 75.6153 59.6751 75.463 59.944 75.3628C60.2129 75.2625 60.4989 75.2161 60.7857 75.2264C61.0725 75.2367 61.3545 75.3033 61.6156 75.4225C61.8766 75.5418 62.1116 75.7113 62.3072 75.9213C68.023 81.7644 75.1697 86.0083 83.0356 88.2306C90.7082 90.4994 98.6668 91.6551 106.668 91.662C105.621 90.6882 104.655 89.6302 103.781 88.4986C101.52 85.6985 100.03 82.3557 99.4604 78.802C99.4127 78.3987 99.4783 77.99 99.6497 77.6219C99.8212 77.2537 100.092 76.9405 100.431 76.7174C100.771 76.4943 101.165 76.3702 101.571 76.3588C101.977 76.3475 102.379 76.4494 102.73 76.6532C109.215 80.042 116.031 82.7546 123.071 84.7481C129.084 86.3423 135.181 87.6006 141.334 88.5172C141.906 88.6101 142.417 88.9264 142.756 89.3964C143.094 89.8664 143.232 90.4517 143.139 91.0235C143.046 91.5952 142.73 92.1067 142.26 92.4453C141.79 92.7839 141.205 92.9219 140.633 92.829C134.324 91.8879 128.073 90.5954 121.908 88.9574C116.202 87.3562 110.639 85.2845 105.276 82.7637C105.835 83.8429 106.492 84.8691 107.237 85.8294C109.12 88.2794 111.511 90.2934 114.245 91.7334C114.692 91.9349 115.059 92.2812 115.285 92.7165C115.512 93.1518 115.585 93.6507 115.493 94.1327C115.402 94.6148 115.15 95.052 114.78 95.3737C114.409 95.6953 113.941 95.8828 113.451 95.9059C102.762 96.5722 92.0381 95.3883 81.752 92.4063C73.1528 89.9614 65.3452 85.3042 59.1081 78.8995Z" fill="#231F20"/>
<path fill-rule="evenodd" clip-rule="evenodd" d="M57.1793 124.833C58.1053 124.833 59.0107 125.108 59.7807 125.622C60.5507 126.137 61.1509 126.868 61.5053 127.723C61.8597 128.579 61.9525 129.521 61.7718 130.429C61.5912 131.337 61.1452 132.171 60.4904 132.826C59.8355 133.481 59.0012 133.927 58.0929 134.108C57.1846 134.288 56.2431 134.196 55.3875 133.841C54.532 133.487 53.8007 132.887 53.2862 132.117C52.7717 131.347 52.4971 130.441 52.4972 129.515C52.4974 128.273 52.9907 127.083 53.8687 126.205C54.7468 125.327 55.9376 124.833 57.1793 124.833Z" fill="white"/>
<path fill-rule="evenodd" clip-rule="evenodd" d="M57.1793 122.643C58.0814 122.643 58.9746 122.822 59.8076 123.168C60.6406 123.514 61.397 124.022 62.0335 124.661L62.0378 124.657C63.3264 125.945 64.0503 127.693 64.0503 129.515C64.0503 131.338 63.3264 133.085 62.0378 134.374C60.7493 135.662 59.0016 136.386 57.1794 136.386C55.3571 136.386 53.6095 135.662 52.3209 134.374C52.2736 134.327 52.2296 134.278 52.1873 134.228C50.9574 132.932 50.2828 131.206 50.3078 129.419C50.3328 127.632 51.0552 125.926 52.3209 124.665L52.3253 124.661L52.329 124.657L52.3332 124.652C52.9692 124.015 53.7246 123.51 54.5561 123.165C55.3877 122.82 56.2791 122.643 57.1793 122.643ZM58.9416 127.745C58.4717 127.282 57.8385 127.023 57.1788 127.023C56.5191 127.023 55.8859 127.282 55.416 127.745L55.4079 127.753C54.9584 128.21 54.7003 128.821 54.6865 129.462C54.6726 130.102 54.9041 130.724 55.3335 131.2L55.416 131.278C55.6474 131.509 55.9222 131.693 56.2246 131.818C56.527 131.944 56.8511 132.008 57.1784 132.008C57.5058 132.008 57.8299 131.944 58.1323 131.819C58.4348 131.694 58.7096 131.51 58.9411 131.279C59.1726 131.047 59.3562 130.772 59.4815 130.47C59.6069 130.168 59.6714 129.843 59.6714 129.516C59.6715 129.189 59.6071 128.865 59.4818 128.562C59.3566 128.26 59.1731 127.985 58.9416 127.753L58.946 127.749L58.9416 127.745Z" fill="#231F20"/>
<path fill-rule="evenodd" clip-rule="evenodd" d="M137.204 124.833C138.13 124.833 139.036 125.108 139.806 125.622C140.576 126.137 141.176 126.868 141.53 127.724C141.885 128.579 141.977 129.521 141.797 130.429C141.616 131.337 141.17 132.172 140.515 132.826C139.86 133.481 139.026 133.927 138.118 134.108C137.209 134.288 136.268 134.196 135.412 133.841C134.557 133.487 133.825 132.887 133.311 132.117C132.797 131.347 132.522 130.441 132.522 129.515C132.522 128.273 133.016 127.083 133.894 126.205C134.772 125.327 135.963 124.833 137.204 124.833Z" fill="white"/>
<path fill-rule="evenodd" clip-rule="evenodd" d="M137.204 122.643C138.106 122.643 139 122.822 139.833 123.168C140.666 123.514 141.422 124.022 142.059 124.661L142.063 124.657C142.705 125.294 143.214 126.052 143.563 126.886C143.911 127.721 144.091 128.616 144.093 129.52C144.094 130.425 143.917 131.321 143.572 132.156C143.226 132.992 142.72 133.752 142.08 134.391C141.441 135.031 140.681 135.538 139.845 135.883C139.009 136.228 138.114 136.405 137.209 136.404C136.305 136.402 135.41 136.222 134.575 135.873C133.741 135.525 132.983 135.016 132.346 134.374C132.299 134.327 132.255 134.278 132.212 134.228C130.982 132.932 130.308 131.206 130.333 129.419C130.358 127.632 131.08 125.926 132.346 124.665L132.35 124.661L132.354 124.657L132.358 124.652C132.994 124.015 133.75 123.51 134.581 123.165C135.413 122.82 136.304 122.643 137.204 122.643ZM138.967 127.745C138.497 127.283 137.864 127.023 137.204 127.023C136.545 127.023 135.912 127.283 135.442 127.745L135.434 127.753C134.985 128.21 134.726 128.821 134.713 129.462C134.699 130.102 134.93 130.724 135.36 131.2L135.442 131.278C135.91 131.745 136.544 132.008 137.205 132.008C137.866 132.008 138.499 131.745 138.967 131.278C139.434 130.81 139.697 130.176 139.697 129.515C139.697 128.854 139.434 128.22 138.966 127.753L138.971 127.749L138.967 127.745Z" fill="#231F20"/>
</g>
<defs>
<clipPath id="clip0_62_49">
<rect width="195" height="195" fill="white"/>
</clipPath>
</defs>
</svg>
