<svg width="195" height="195" viewBox="0 0 195 195" fill="none" xmlns="http://www.w3.org/2000/svg">
<g clip-path="url(#clip0_62_101)">
<path d="M97.4999 192.81C150.138 192.81 192.81 150.138 192.81 97.5001C192.81 44.8618 150.138 2.19005 97.4999 2.19005C44.8616 2.19005 2.18982 44.8618 2.18982 97.5001C2.18982 150.138 44.8616 192.81 97.4999 192.81Z" fill="#D1D3D4"/>
<path fill-rule="evenodd" clip-rule="evenodd" d="M97.5 7.9824e-05C120.058 -0.000384985 141.918 7.82075 159.355 22.1309C176.793 36.441 188.729 56.3546 193.13 78.4787C197.531 100.603 194.125 123.569 183.492 143.463C172.858 163.357 155.656 178.949 134.815 187.581C113.975 196.214 90.7859 197.354 69.1995 190.806C47.6132 184.258 28.965 170.428 16.4325 151.672C3.90005 132.916 -1.74133 110.395 0.469611 87.9455C2.68055 65.4965 12.607 44.5085 28.5577 28.5578C37.6013 19.4906 48.3476 12.2999 60.179 7.39905C72.0104 2.49816 84.6937 -0.0163321 97.5 7.9824e-05ZM163.346 31.654C148.112 16.42 128.068 6.93942 106.627 4.82762C85.187 2.71582 63.6778 8.10348 45.7645 20.0726C27.8513 32.0418 14.6423 49.8518 8.38832 70.4681C2.13434 91.0844 3.22226 113.231 11.4667 133.136C19.7112 153.04 34.6021 169.469 53.6022 179.625C72.6023 189.781 94.536 193.035 115.666 188.832C136.796 184.629 155.815 173.229 169.483 156.575C183.15 139.922 190.62 119.044 190.62 97.5002C190.636 85.2691 188.235 73.1555 183.554 61.8554C178.873 50.5553 172.006 40.2916 163.346 31.654Z" fill="#231F20"/>
<path fill-rule="evenodd" clip-rule="evenodd" d="M79.3187 143.967L81.745 124.824V140.221H115.207L115.682 143.967C128.983 157.264 137.838 165.489 160.007 156.375C147.807 149.704 147.318 141.911 155.486 130.886C164.921 118.152 155.126 104.985 150.406 100.706C157.397 99.1243 160.325 81.9528 145.28 75.8088C150.248 74.965 151.747 48.7959 126.587 38.1875C110.696 31.4891 84.4668 31.2239 67.9844 38.378C43.2765 49.1038 44.7836 74.9701 49.7212 75.8099C34.6771 81.9539 37.6044 99.1254 44.5957 100.707C39.8744 104.986 30.0798 118.153 39.5153 130.887C47.6833 141.912 47.1937 149.704 34.9944 156.376C57.1627 165.489 66.0175 157.264 79.3187 143.967Z" fill="#231F20"/>
<path fill-rule="evenodd" clip-rule="evenodd" d="M77.2484 142.949L79.5806 124.55C79.6499 123.999 79.9266 123.496 80.3542 123.142C80.7819 122.788 81.3283 122.61 81.8824 122.645C82.4364 122.68 82.9563 122.925 83.3361 123.329C83.716 123.734 83.9273 124.269 83.927 124.824H83.9362V138.031H115.207C115.772 138.031 116.316 138.25 116.723 138.641C117.131 139.033 117.372 139.567 117.395 140.132L117.752 142.949C123.989 149.173 129.246 154.188 135.306 156.539C140.607 158.596 146.749 158.688 155.102 155.882C153.264 154.752 151.68 153.254 150.449 151.483C149.217 149.711 148.365 147.705 147.945 145.589C147.225 140.803 149.294 135.577 153.733 129.586C155.159 127.761 156.187 125.657 156.751 123.411C157.316 121.165 157.403 118.825 157.009 116.543C155.866 111.079 153.046 106.108 148.941 102.325C148.645 102.057 148.428 101.712 148.314 101.329C148.2 100.946 148.194 100.539 148.295 100.153C148.397 99.7663 148.603 99.4152 148.891 99.1379C149.178 98.8605 149.537 98.6676 149.927 98.5801V98.5771C150.939 98.27 151.798 97.5918 152.331 96.6783C153.339 95.0669 153.892 93.2132 153.933 91.3132C154.028 89.0063 153.513 86.7151 152.439 84.6712C150.683 81.5096 147.852 79.082 144.459 77.8289C144.02 77.6501 143.651 77.3327 143.408 76.9249C143.165 76.5171 143.062 76.0413 143.114 75.5697C143.167 75.098 143.372 74.6564 143.698 74.3118C144.024 73.9672 144.454 73.7386 144.922 73.6606L144.921 73.6544C144.994 73.6419 144.866 73.5868 144.965 73.4304C145.875 71.4915 146.247 69.3432 146.04 67.2113C145.888 63.6162 145.038 60.085 143.539 56.814C139.968 49.1896 133.592 43.2374 125.74 40.1978C116.6 36.7324 106.878 35.0596 97.1053 35.2707C87.4432 35.1144 77.8438 36.8502 68.8482 40.3804C61.1517 43.465 54.9217 49.3696 51.429 56.8898C49.9386 60.1645 49.1001 63.6982 48.9602 67.2934C48.7597 69.4059 49.1382 71.5332 50.0551 73.4468C50.1513 73.5946 49.9986 73.6411 50.0812 73.6549C50.5638 73.7353 51.0055 73.9754 51.3354 74.3366C51.6654 74.6978 51.8647 75.1593 51.9013 75.6472C51.9379 76.1351 51.8098 76.6212 51.5374 77.0276C51.265 77.434 50.8641 77.7373 50.3989 77.8889C47.0673 79.152 44.2912 81.5549 42.5635 84.671C41.4895 86.7151 40.9741 89.0065 41.0694 91.3136C41.1097 93.2137 41.663 95.0675 42.6708 96.6787C43.2046 97.592 44.0635 98.2702 45.0757 98.5775C45.474 98.6671 45.8392 98.8665 46.1299 99.1532C46.4205 99.4399 46.625 99.8023 46.7201 100.199C46.8151 100.596 46.797 101.012 46.6677 101.399C46.5384 101.787 46.3032 102.13 45.9886 102.39C41.9213 106.165 39.127 111.111 37.9918 116.543C37.5974 118.825 37.6852 121.165 38.2496 123.412C38.8139 125.658 39.8424 127.762 41.2687 129.587C45.7068 135.578 47.7771 140.804 47.057 145.59C46.6366 147.706 45.7836 149.713 44.5514 151.485C43.3192 153.256 41.7344 154.754 39.8963 155.884C48.2507 158.689 54.393 158.597 59.6941 156.541C65.7538 154.19 71.0114 149.173 77.2484 142.949ZM81.7157 142.41L81.4947 144.154C81.4512 144.669 81.2261 145.151 80.8597 145.515C74.0309 152.341 68.3338 157.871 61.2699 160.611C54.1035 163.392 45.8395 163.193 34.1647 158.394C33.7832 158.237 33.4539 157.976 33.215 157.64C32.9761 157.303 32.8374 156.906 32.815 156.495C32.7926 156.083 32.8874 155.673 33.0883 155.313C33.2893 154.953 33.5883 154.657 33.9505 154.46C39.3957 151.482 42.2094 148.385 42.7278 144.939C43.2597 141.406 41.4901 137.221 37.7612 132.188C35.9767 129.896 34.6916 127.256 33.9887 124.437C33.2857 121.619 33.1804 118.685 33.6796 115.823C34.7645 110.405 37.2914 105.381 40.9936 101.28C40.2402 100.655 39.5829 99.923 39.0432 99.1068C37.589 96.8239 36.7815 94.1892 36.7068 91.4836C36.5793 88.4099 37.2655 85.3571 38.6963 82.6338C40.3763 79.5049 42.918 76.9232 46.0204 75.1947C44.9115 72.6733 44.4239 69.9226 44.5983 67.1736C44.7545 63.0058 45.7205 58.9083 47.4425 55.1096C51.3771 46.5874 58.4147 39.8872 67.1198 36.3757C76.6615 32.6113 86.8484 30.7535 97.1047 30.9072C107.459 30.6966 117.756 32.4856 127.433 36.176C136.307 39.6341 143.504 46.3831 147.525 55.0166C149.257 58.8171 150.234 62.918 150.402 67.0913C150.586 69.8667 150.097 72.6456 148.976 75.1912C152.08 76.9202 154.624 79.5031 156.304 82.6338C157.735 85.3569 158.422 88.4096 158.294 91.4831C158.219 94.1888 157.411 96.8234 155.957 99.1063C155.418 99.9225 154.76 100.655 154.007 101.279C157.709 105.38 160.236 110.405 161.321 115.822C161.82 118.684 161.715 121.618 161.012 124.436C160.309 127.254 159.024 129.894 157.24 132.186C153.511 137.219 151.741 141.404 152.273 144.937C152.79 148.376 155.594 151.468 161.019 154.441C161.388 154.634 161.693 154.928 161.9 155.288C162.107 155.648 162.207 156.06 162.187 156.475C162.168 156.89 162.031 157.291 161.792 157.631C161.553 157.971 161.221 158.235 160.837 158.393C149.162 163.193 140.898 163.391 133.732 160.61C126.668 157.87 120.971 152.34 114.142 145.515L114.144 145.513C113.799 145.171 113.578 144.723 113.517 144.24L113.285 142.41H81.745L81.7157 142.41Z" fill="#231F20"/>
<path fill-rule="evenodd" clip-rule="evenodd" d="M140.335 182.581C127.044 189.259 112.375 192.737 97.5 192.737C82.6252 192.737 67.9564 189.259 54.6647 182.581C54.5517 181.31 54.4895 180.024 54.4895 178.723C54.4895 173.075 55.602 167.482 57.7634 162.264C59.9249 157.046 63.0929 152.304 67.0868 148.311C71.0806 144.317 75.822 141.149 81.0401 138.987C86.2583 136.826 91.8511 135.713 97.4993 135.713C103.147 135.713 108.74 136.826 113.958 138.987C119.177 141.149 123.918 144.317 127.912 148.311C131.906 152.304 135.074 157.046 137.235 162.264C139.397 167.482 140.509 173.075 140.509 178.723C140.51 180.024 140.448 181.31 140.335 182.581Z" fill="#F5EE9B"/>
<path fill-rule="evenodd" clip-rule="evenodd" d="M141.319 184.532C127.728 191.381 112.72 194.948 97.5 194.948C82.2803 194.948 67.2724 191.381 53.6808 184.532C53.3278 184.354 53.0298 184.084 52.8185 183.75C52.6072 183.416 52.4905 183.031 52.481 182.636C52.4245 181.981 52.3809 181.353 52.3537 180.758C52.3189 179.991 52.3003 179.307 52.3003 178.723C52.3266 166.753 57.1004 155.281 65.5741 146.826C74.0478 138.371 85.5295 133.623 97.5 133.623C109.47 133.623 120.952 138.371 129.426 146.826C137.9 155.281 142.673 166.753 142.7 178.723C142.7 179.307 142.681 179.99 142.646 180.758C142.617 181.393 142.57 182.066 142.508 182.77C142.476 183.14 142.35 183.496 142.141 183.804C141.933 184.112 141.649 184.361 141.317 184.528L141.319 184.532ZM119.039 188.041C125.677 186.468 132.121 184.166 138.252 181.176L138.284 180.569C138.307 180.051 138.32 179.439 138.32 178.723C138.332 173.354 137.286 168.036 135.24 163.072C133.194 158.109 130.189 153.598 126.397 149.797C122.606 145.997 118.102 142.982 113.143 140.924C108.184 138.867 102.868 137.808 97.5 137.808C92.1315 137.808 86.8157 138.867 81.857 140.924C76.8984 142.982 72.3942 145.997 68.6025 149.797C64.8108 153.598 61.806 158.109 59.7602 163.072C57.7144 168.036 56.6677 173.354 56.6802 178.723C56.6802 179.439 56.6933 180.051 56.7161 180.569L56.7478 181.176C76.1031 190.563 98.104 192.988 119.039 188.041Z" fill="#231F20"/>
<path d="M104.076 161.455C112.893 157.823 117.096 147.731 113.465 138.914C109.833 130.097 99.7412 125.894 90.9242 129.525C82.1071 133.157 77.9035 143.249 81.5352 152.066C85.1669 160.883 95.2585 165.086 104.076 161.455Z" fill="#C7806F"/>
<path fill-rule="evenodd" clip-rule="evenodd" d="M97.4999 126.034C102.002 126.034 106.364 127.594 109.844 130.45C113.324 133.306 115.706 137.279 116.585 141.694C117.463 146.11 116.784 150.693 114.662 154.663C112.54 158.633 109.107 161.745 104.948 163.467C100.789 165.19 96.1616 165.418 91.8538 164.111C87.546 162.804 83.8245 160.045 81.3235 156.302C78.8225 152.559 77.6967 148.064 78.1379 143.584C78.5791 139.104 80.5601 134.916 83.7432 131.733C85.5478 129.924 87.692 128.489 90.0529 127.511C92.4137 126.533 94.9445 126.031 97.4999 126.034ZM108.161 134.829C105.694 132.363 102.449 130.827 98.9773 130.485C95.5058 130.143 92.023 131.015 89.1224 132.953C86.2218 134.891 84.0829 137.774 83.0701 141.112C82.0573 144.45 82.2332 148.036 83.568 151.259C84.9028 154.482 87.3138 157.142 90.3902 158.787C93.4665 160.431 97.018 160.958 100.439 160.278C103.861 159.597 106.94 157.752 109.153 155.055C111.366 152.359 112.576 148.978 112.576 145.49C112.578 143.51 112.19 141.549 111.432 139.719C110.674 137.89 109.563 136.228 108.161 134.829Z" fill="#231F20"/>
<path fill-rule="evenodd" clip-rule="evenodd" d="M139.139 103.703C141.274 103.703 143.362 104.336 145.138 105.523C146.914 106.709 148.298 108.396 149.115 110.369C149.932 112.342 150.146 114.513 149.73 116.608C149.313 118.703 148.284 120.627 146.774 122.137C145.264 123.647 143.34 124.676 141.245 125.092C139.151 125.509 136.979 125.295 135.006 124.478C133.033 123.661 131.347 122.277 130.16 120.501C128.973 118.725 128.34 116.637 128.34 114.501C128.34 113.083 128.619 111.679 129.162 110.369C129.705 109.059 130.5 107.868 131.503 106.866C132.506 105.863 133.696 105.068 135.006 104.525C136.316 103.982 137.72 103.703 139.139 103.703Z" fill="#C7806F"/>
<path fill-rule="evenodd" clip-rule="evenodd" d="M139.139 101.513C142.144 101.513 145.056 102.555 147.379 104.461C149.702 106.368 151.293 109.02 151.879 111.968C152.466 114.915 152.012 117.975 150.595 120.625C149.179 123.276 146.887 125.353 144.111 126.503C141.334 127.653 138.245 127.805 135.369 126.933C132.493 126.06 130.009 124.218 128.339 121.719C126.67 119.22 125.918 116.22 126.213 113.229C126.507 110.239 127.83 107.443 129.955 105.318C131.159 104.11 132.591 103.152 134.167 102.499C135.743 101.846 137.433 101.511 139.139 101.513ZM145.226 108.414C143.818 107.005 141.964 106.127 139.982 105.932C137.999 105.736 136.01 106.234 134.353 107.34C132.696 108.447 131.474 110.094 130.896 112C130.317 113.907 130.417 115.955 131.18 117.796C131.942 119.637 133.319 121.156 135.076 122.095C136.833 123.035 138.861 123.336 140.815 122.947C142.769 122.559 144.528 121.505 145.792 119.965C147.056 118.425 147.747 116.494 147.747 114.501C147.748 113.371 147.527 112.251 147.094 111.206C146.661 110.161 146.027 109.212 145.226 108.414Z" fill="#231F20"/>
<path fill-rule="evenodd" clip-rule="evenodd" d="M55.8625 103.703C57.9982 103.703 60.086 104.336 61.8618 105.523C63.6377 106.709 65.0218 108.396 65.8391 110.369C66.6565 112.342 66.8703 114.513 66.4537 116.608C66.0371 118.703 65.0086 120.627 63.4984 122.137C61.9883 123.647 60.0642 124.676 57.9694 125.092C55.8747 125.509 53.7035 125.295 51.7303 124.478C49.7572 123.661 48.0707 122.277 46.8841 120.501C45.6975 118.725 45.0642 116.637 45.0642 114.501C45.0642 113.083 45.3434 111.679 45.8861 110.369C46.4287 109.059 47.2241 107.868 48.2268 106.866C49.2295 105.863 50.4199 105.068 51.7301 104.525C53.0402 103.982 54.4444 103.703 55.8625 103.703Z" fill="#C7806F"/>
<path fill-rule="evenodd" clip-rule="evenodd" d="M55.8625 101.513C58.8677 101.513 61.78 102.555 64.1032 104.461C66.4264 106.367 68.0168 109.02 68.6032 111.968C69.1897 114.915 68.736 117.975 67.3195 120.625C65.903 123.276 63.6112 125.353 60.8348 126.503C58.0584 127.653 54.9691 127.805 52.0932 126.933C49.2174 126.06 46.733 124.218 45.0634 121.719C43.3937 119.221 42.6421 116.22 42.9367 113.229C43.2313 110.239 44.5538 107.443 46.6788 105.318C47.8835 104.11 49.315 103.152 50.891 102.499C52.4671 101.846 54.1566 101.511 55.8625 101.513ZM61.9502 108.414C60.5418 107.005 58.6882 106.127 56.7055 105.932C54.7228 105.736 52.7336 106.234 51.0768 107.34C49.42 108.447 48.1982 110.094 47.6196 112C47.0409 113.907 47.1412 115.955 47.9034 117.796C48.6656 119.637 50.0426 121.156 51.7996 122.095C53.5566 123.035 55.5849 123.336 57.539 122.947C59.4931 122.559 61.252 121.505 62.516 119.965C63.78 118.425 64.4709 116.494 64.4709 114.501C64.4724 113.371 64.2505 112.251 63.8179 111.206C63.3853 110.161 62.7506 109.212 61.9502 108.414Z" fill="#231F20"/>
<path d="M97.4998 145.9C121.083 145.9 140.202 126.781 140.202 103.198C140.202 79.6142 121.083 60.496 97.4998 60.496C73.9162 60.496 54.798 79.6142 54.798 103.198C54.798 126.781 73.9162 145.9 97.4998 145.9Z" fill="#C7806F"/>
<path fill-rule="evenodd" clip-rule="evenodd" d="M97.4998 58.3059C107.886 58.3056 117.952 61.9068 125.981 68.4958C134.01 75.0848 139.506 84.254 141.532 94.441C143.559 104.628 141.99 115.203 137.094 124.363C132.198 133.523 124.277 140.702 114.681 144.677C105.085 148.652 94.408 149.176 84.4686 146.161C74.5293 143.146 65.9429 136.777 60.1726 128.141C54.4023 119.505 51.805 109.135 52.8233 98.7985C53.8416 88.462 58.4125 78.7983 65.7572 71.4541C69.9212 67.2795 74.8691 63.9689 80.3165 61.7125C85.7639 59.4561 91.6036 58.2984 97.4998 58.3059ZM126.146 74.5514C119.519 67.9239 110.799 63.7995 101.471 62.8808C92.1435 61.9621 82.7861 64.306 74.993 69.5131C67.2 74.7202 61.4535 82.4684 58.7327 91.4374C56.012 100.406 56.4852 110.041 60.0719 118.701C63.6586 127.36 70.1368 134.507 78.4027 138.926C86.6686 143.344 96.2107 144.759 105.403 142.931C114.596 141.102 122.87 136.143 128.816 128.898C134.762 121.653 138.012 112.57 138.012 103.198C138.019 97.8767 136.974 92.6066 134.938 87.6905C132.901 82.7744 129.914 78.3092 126.146 74.5514Z" fill="#231F20"/>
<path fill-rule="evenodd" clip-rule="evenodd" d="M79.228 108.958C80.3244 108.958 81.3961 109.283 82.3077 109.892C83.2193 110.501 83.9298 111.367 84.3494 112.38C84.7689 113.393 84.8787 114.508 84.6648 115.583C84.4509 116.658 83.923 117.646 83.1477 118.421C82.3725 119.196 81.3848 119.724 80.3095 119.938C79.2342 120.152 78.1196 120.042 77.1067 119.623C76.0938 119.203 75.228 118.493 74.6189 117.581C74.0098 116.67 73.6847 115.598 73.6847 114.501C73.6847 113.774 73.828 113.053 74.1066 112.38C74.3852 111.708 74.7935 111.096 75.3082 110.582C75.823 110.067 76.4341 109.659 77.1066 109.38C77.7792 109.101 78.5001 108.958 79.228 108.958Z" fill="#231F20"/>
<path fill-rule="evenodd" clip-rule="evenodd" d="M115.771 108.958C116.867 108.958 117.939 109.283 118.851 109.892C119.762 110.501 120.473 111.367 120.892 112.38C121.312 113.393 121.422 114.507 121.208 115.583C120.994 116.658 120.466 117.646 119.691 118.421C118.916 119.196 117.928 119.724 116.853 119.938C115.777 120.152 114.663 120.042 113.65 119.623C112.637 119.203 111.771 118.493 111.162 117.581C110.553 116.67 110.228 115.598 110.228 114.501C110.228 113.774 110.371 113.053 110.65 112.38C110.928 111.708 111.336 111.097 111.851 110.582C112.366 110.067 112.977 109.659 113.649 109.38C114.322 109.102 115.043 108.958 115.771 108.958Z" fill="#231F20"/>
<path fill-rule="evenodd" clip-rule="evenodd" d="M57.1792 124.833C58.1053 124.833 59.0106 125.108 59.7806 125.622C60.5506 126.137 61.1507 126.868 61.5051 127.724C61.8595 128.579 61.9522 129.521 61.7715 130.429C61.5909 131.337 61.1449 132.172 60.49 132.826C59.8352 133.481 59.0009 133.927 58.0926 134.108C57.1843 134.288 56.2428 134.196 55.3872 133.841C54.5317 133.487 53.8004 132.887 53.2859 132.117C52.7715 131.347 52.4969 130.441 52.4969 129.515C52.4972 128.273 52.9906 127.083 53.8686 126.205C54.7467 125.327 55.9375 124.833 57.1792 124.833Z" fill="white"/>
<path fill-rule="evenodd" clip-rule="evenodd" d="M57.1793 122.643C58.0814 122.643 58.9746 122.822 59.8076 123.168C60.6406 123.514 61.397 124.022 62.0335 124.661L62.0379 124.657C62.6796 125.294 63.1892 126.052 63.5375 126.886C63.8858 127.721 64.0659 128.616 64.0675 129.52C64.0691 130.425 63.8922 131.321 63.5468 132.156C63.2015 132.992 62.6945 133.752 62.055 134.391C61.4155 135.031 60.6561 135.538 59.8202 135.883C58.9844 136.228 58.0886 136.405 57.1843 136.404C56.2799 136.402 55.3847 136.222 54.5501 135.873C53.7156 135.525 52.9579 135.015 52.3207 134.374C52.2736 134.327 52.2296 134.278 52.1874 134.228C50.9574 132.932 50.2829 131.206 50.3078 129.419C50.3327 127.632 51.0551 125.926 52.3207 124.665L52.3251 124.661L52.3288 124.657L52.3332 124.652C52.9692 124.015 53.7246 123.51 54.5561 123.165C55.3877 122.82 56.2791 122.643 57.1793 122.643ZM58.9417 127.745C58.4717 127.282 57.8385 127.023 57.1789 127.023C56.5192 127.023 55.886 127.282 55.416 127.745L55.4079 127.753C54.9584 128.21 54.7003 128.821 54.6865 129.462C54.6727 130.102 54.9041 130.724 55.3335 131.2L55.416 131.278C55.8834 131.745 56.5174 132.008 57.1785 132.008C57.8395 132.008 58.4736 131.746 58.9411 131.279C59.4086 130.811 59.6714 130.177 59.6715 129.516C59.6716 128.855 59.409 128.221 58.9417 127.753L58.946 127.749L58.9417 127.745Z" fill="#231F20"/>
<path fill-rule="evenodd" clip-rule="evenodd" d="M137.204 124.833C138.13 124.833 139.036 125.108 139.806 125.622C140.576 126.137 141.176 126.868 141.53 127.724C141.885 128.579 141.977 129.521 141.797 130.429C141.616 131.337 141.17 132.172 140.515 132.826C139.86 133.481 139.026 133.927 138.118 134.108C137.209 134.288 136.268 134.196 135.412 133.841C134.557 133.487 133.825 132.887 133.311 132.117C132.797 131.347 132.522 130.441 132.522 129.515C132.522 128.273 133.016 127.083 133.894 126.205C134.772 125.327 135.963 124.833 137.204 124.833Z" fill="white"/>
<path fill-rule="evenodd" clip-rule="evenodd" d="M137.204 122.643C138.106 122.643 139 122.822 139.833 123.168C140.666 123.514 141.422 124.022 142.059 124.661L142.063 124.657C142.705 125.294 143.214 126.052 143.563 126.886C143.911 127.721 144.091 128.616 144.093 129.52C144.094 130.425 143.917 131.321 143.572 132.156C143.227 132.992 142.72 133.752 142.08 134.391C141.441 135.031 140.681 135.538 139.845 135.883C139.009 136.228 138.114 136.405 137.209 136.404C136.305 136.402 135.41 136.222 134.575 135.873C133.741 135.525 132.983 135.015 132.346 134.374C132.299 134.327 132.254 134.278 132.212 134.228C130.982 132.932 130.308 131.206 130.333 129.419C130.358 127.632 131.08 125.926 132.346 124.665L132.35 124.661L132.354 124.657L132.358 124.652C132.994 124.015 133.75 123.51 134.581 123.165C135.413 122.82 136.304 122.643 137.204 122.643ZM138.967 127.745C138.497 127.282 137.863 127.023 137.204 127.023C136.544 127.023 135.911 127.282 135.441 127.745L135.433 127.753C134.983 128.21 134.725 128.821 134.712 129.462C134.698 130.102 134.929 130.724 135.358 131.2L135.441 131.278C135.908 131.745 136.542 132.008 137.203 132.008C137.864 132.008 138.498 131.746 138.966 131.279C139.433 130.811 139.696 130.177 139.696 129.516C139.696 128.855 139.434 128.221 138.967 127.753L138.971 127.749L138.967 127.745Z" fill="#231F20"/>
<path fill-rule="evenodd" clip-rule="evenodd" d="M60.81 57.4996C73.9106 47.9253 89.7433 47.295 96.1746 56.0955C96.6874 56.7983 97.1313 57.549 97.4999 58.337C97.8686 57.5492 98.3125 56.7988 98.8252 56.0962C105.256 47.2966 121.089 47.9255 134.191 57.5003C147.292 67.0751 152.698 81.9699 146.267 90.7684C139.836 99.5669 124.003 98.9384 110.901 89.3636C104.858 85.1242 100.197 79.1987 97.4997 72.3267C94.802 79.1983 90.141 85.1236 84.0979 89.3636C70.9966 98.9371 55.1635 99.5682 48.7322 90.7677C42.3009 81.9672 47.7087 67.0744 60.81 57.4996Z" fill="#231F20"/>
<path d="M57.1792 146.681C60.48 146.681 63.1557 144.005 63.1557 140.705C63.1557 137.404 60.48 134.728 57.1792 134.728C53.8785 134.728 51.2028 137.404 51.2028 140.705C51.2028 144.005 53.8785 146.681 57.1792 146.681Z" fill="white"/>
<path fill-rule="evenodd" clip-rule="evenodd" d="M57.1792 132.538C58.2505 132.538 59.3114 132.749 60.3008 133.159C61.2903 133.57 62.189 134.172 62.9453 134.931L62.949 134.935L62.9534 134.931C63.7118 135.688 64.3135 136.587 64.7241 137.578C65.1346 138.568 65.3459 139.629 65.3459 140.701C65.3459 141.773 65.1346 142.834 64.7241 143.824C64.3135 144.814 63.7118 145.714 62.9534 146.471L62.9453 146.479C62.1879 147.237 61.2885 147.839 60.2984 148.25C59.3082 148.66 58.2469 148.871 57.1751 148.871C56.1032 148.871 55.0419 148.66 54.0518 148.25C53.0617 147.839 52.1623 147.237 51.4049 146.479C51.3602 146.434 51.3176 146.388 51.277 146.34C50.1725 145.184 49.4317 143.73 49.1466 142.157C48.8615 140.584 49.0446 138.961 49.6732 137.491C50.3018 136.022 51.3481 134.769 52.6825 133.888C54.0168 133.008 55.5806 132.538 57.1792 132.538ZM59.8609 138.023C59.1565 137.322 58.2048 136.925 57.2107 136.918C56.2165 136.911 55.2594 137.295 54.5455 137.987C53.8316 138.679 53.4179 139.623 53.3935 140.617C53.3691 141.611 53.7359 142.575 54.415 143.301L54.5013 143.382C54.853 143.734 55.2704 144.013 55.7299 144.203C56.1894 144.394 56.6818 144.492 57.1792 144.492C57.6765 144.492 58.169 144.394 58.6284 144.204C59.0879 144.013 59.5054 143.734 59.8571 143.383C60.2088 143.031 60.4877 142.613 60.678 142.154C60.8684 141.695 60.9663 141.202 60.9663 140.705C60.9664 140.207 60.8684 139.715 60.6781 139.255C60.4878 138.796 60.2088 138.378 59.8572 138.027L59.8609 138.023Z" fill="#231F20"/>
<path d="M137.204 146.681C140.505 146.681 143.181 144.005 143.181 140.705C143.181 137.404 140.505 134.728 137.204 134.728C133.904 134.728 131.228 137.404 131.228 140.705C131.228 144.005 133.904 146.681 137.204 146.681Z" fill="white"/>
<path fill-rule="evenodd" clip-rule="evenodd" d="M137.204 132.538C138.276 132.538 139.336 132.749 140.326 133.159C141.315 133.57 142.214 134.172 142.97 134.931L142.974 134.935L142.978 134.931C143.737 135.688 144.338 136.587 144.749 137.578C145.159 138.568 145.371 139.629 145.371 140.701C145.371 141.773 145.159 142.834 144.749 143.824C144.338 144.814 143.737 145.714 142.978 146.471L142.97 146.479C142.213 147.237 141.313 147.839 140.323 148.25C139.333 148.66 138.272 148.871 137.2 148.871C136.128 148.871 135.067 148.66 134.077 148.25C133.087 147.839 132.187 147.237 131.43 146.479C131.386 146.435 131.342 146.388 131.302 146.34C130.198 145.184 129.457 143.73 129.172 142.157C128.887 140.584 129.07 138.961 129.698 137.491C130.327 136.022 131.373 134.769 132.708 133.888C134.042 133.008 135.606 132.538 137.204 132.538ZM139.886 138.023C139.181 137.323 138.23 136.927 137.237 136.921C136.243 136.915 135.287 137.298 134.574 137.99C133.86 138.681 133.447 139.625 133.422 140.618C133.397 141.611 133.763 142.574 134.44 143.301L134.527 143.382C135.238 144.086 136.199 144.479 137.2 144.476C138.201 144.473 139.159 144.075 139.867 143.367C140.575 142.659 140.973 141.701 140.976 140.7C140.979 139.7 140.586 138.738 139.882 138.027L139.886 138.023Z" fill="#231F20"/>
</g>
<defs>
<clipPath id="clip0_62_101">
<rect width="195" height="195" fill="white"/>
</clipPath>
</defs>
</svg>
