<svg width="195" height="195" viewBox="0 0 195 195" fill="none" xmlns="http://www.w3.org/2000/svg">
<g clip-path="url(#clip0_62_72)">
<path d="M97.4999 192.81C150.138 192.81 192.81 150.138 192.81 97.4999C192.81 44.8616 150.138 2.18983 97.4999 2.18983C44.8617 2.18983 2.18994 44.8616 2.18994 97.4999C2.18994 150.138 44.8617 192.81 97.4999 192.81Z" fill="#7BD3F7"/>
<path fill-rule="evenodd" clip-rule="evenodd" d="M97.5001 7.99872e-05C120.058 -0.000334158 141.918 7.82085 159.355 22.131C176.793 36.4411 188.729 56.3548 193.13 78.479C197.531 100.603 194.125 123.569 183.491 143.463C172.858 163.357 155.655 178.949 134.815 187.582C113.975 196.214 90.7855 197.354 69.1992 190.806C47.6129 184.258 28.9648 170.427 16.4324 151.671C3.89994 132.915 -1.74137 110.394 0.469639 87.9452C2.68065 65.4962 12.6072 44.5083 28.5578 28.5576C37.6015 19.4904 48.3478 12.2998 60.1792 7.39897C72.0106 2.49811 84.6939 -0.0163487 97.5001 7.99872e-05ZM163.346 31.654C148.112 16.4198 128.067 6.93899 106.627 4.82707C85.1866 2.71514 63.6772 8.10275 45.7638 20.0719C27.8503 32.0411 14.6412 49.8512 8.38711 70.4677C2.13301 91.0842 3.2209 113.231 11.4654 133.136C19.7099 153.04 34.6009 169.47 53.6011 179.626C72.6014 189.782 94.5353 193.035 115.666 188.832C136.796 184.629 155.815 173.23 169.482 156.576C183.15 139.922 190.62 119.044 190.62 97.5C190.636 85.2689 188.235 73.1553 183.554 61.8553C178.873 50.5552 172.006 40.2915 163.346 31.654Z" fill="#231F20"/>
<path fill-rule="evenodd" clip-rule="evenodd" d="M48.2296 131.16C37.5709 132.66 14.1113 119.758 35.2124 102.836C27.7574 100.646 9.16008 89.9437 32.3297 84.0927C62.8296 76.3893 55.4423 51.4815 67.808 42.6204C73.484 38.5528 83.7293 36.5193 97.4159 42.0543C111.102 36.5193 121.517 38.5528 127.195 42.6204C139.559 51.4828 132.172 76.3893 162.671 84.0927C185.841 89.9437 167.244 100.648 159.789 102.836C180.889 119.758 157.429 132.659 146.771 131.16C156.04 153.964 39.2649 154.788 48.2296 131.16Z" fill="#FFFCD5"/>
<path fill-rule="evenodd" clip-rule="evenodd" d="M45.5188 133.432C40.9848 133.094 36.6043 131.642 32.7657 129.206C30.1177 127.593 27.8928 125.372 26.276 122.726C24.612 119.943 24.0991 116.62 24.8464 113.465C25.9123 109.647 28.0619 106.221 31.0351 103.6C27.7659 102.215 24.749 100.298 22.107 97.9267C20.6308 96.6184 19.567 94.9091 19.0449 93.007C18.8056 91.9525 18.8466 90.8537 19.1639 89.8199C19.4813 88.7862 20.0639 87.8536 20.8537 87.1151C22.7074 85.1788 26.1498 83.3974 31.7987 81.9709C49.988 77.3769 53.8916 66.1766 57.278 56.4548C59.4593 50.1948 61.45 44.4826 66.5326 40.8414C70.7964 37.9697 75.8292 36.4552 80.9697 36.497C86.608 36.4885 92.194 37.5787 97.4153 39.7068C102.661 37.5748 108.272 36.4845 113.935 36.497C119.106 36.4493 124.171 37.9631 128.468 40.8403C133.551 44.4828 135.541 50.1943 137.722 56.4538C141.109 66.1751 145.012 77.3758 163.201 81.9698C168.851 83.3963 172.293 85.1784 174.146 87.114C174.936 87.8526 175.519 88.7852 175.836 89.8189C176.153 90.8526 176.194 91.9514 175.955 93.0059C175.433 94.9079 174.369 96.6171 172.893 97.9254C170.251 100.297 167.235 102.214 163.966 103.598C166.939 106.219 169.089 109.646 170.154 113.464C170.902 116.619 170.389 119.942 168.725 122.725C167.108 125.37 164.883 127.592 162.235 129.204C158.408 131.634 154.042 133.085 149.521 133.43C149.767 138.199 145.673 141.946 138.873 144.71C129.295 148.603 113.808 150.636 98.2719 150.749C82.7542 150.862 67.0941 149.059 57.142 145.284C49.7682 142.486 45.2661 138.561 45.5188 133.432ZM35.1097 125.527C38.8937 128.044 43.3938 129.261 47.9305 128.995C48.3055 128.943 48.6876 128.99 49.0391 129.131C49.3907 129.271 49.6997 129.501 49.936 129.796C50.1722 130.092 50.3275 130.444 50.3867 130.818C50.4459 131.192 50.4069 131.575 50.2736 131.929C48.8478 135.689 52.3859 138.806 58.6814 141.195C68.1428 144.784 83.223 146.497 98.2549 146.387C113.267 146.278 128.146 144.349 137.231 140.656C142.977 138.32 146.128 135.389 144.742 131.981C144.598 131.626 144.552 131.239 144.605 130.859C144.658 130.48 144.81 130.121 145.045 129.818C145.281 129.516 145.592 129.281 145.947 129.136C146.302 128.992 146.689 128.944 147.068 128.996C151.605 129.262 156.105 128.044 159.889 125.528C161.943 124.293 163.675 122.589 164.941 120.554C166.042 118.718 166.383 116.525 165.892 114.441C165.213 111.505 162.956 108.181 158.435 104.552C157.217 103.227 157.31 101.287 159.172 100.742C163.107 99.5313 166.744 97.5059 169.846 94.7974C170.701 94.0747 171.34 93.1303 171.693 92.068C171.752 91.7146 171.719 91.3518 171.597 91.0148C171.475 90.6779 171.268 90.3782 170.996 90.1449C168.428 88.101 165.38 86.7477 162.141 86.2135C141.666 81.0413 137.347 68.6485 133.599 57.8916C131.66 52.3242 129.89 47.244 125.919 44.3992C122.349 42.0348 118.149 40.8009 113.866 40.858C108.489 40.8679 103.17 41.9643 98.2275 44.0812C97.7061 44.2907 97.1239 44.2907 96.6024 44.0812C91.6845 41.9691 86.3903 40.8729 81.038 40.8585C76.7868 40.8072 72.6192 42.0415 69.0816 44.3996C65.1114 47.2444 63.3409 52.3246 61.4012 57.892C57.6537 68.6489 53.3348 81.0418 32.859 86.2139C28.0782 87.4212 25.3197 88.7664 24.0025 90.1425C23.7304 90.3758 23.5232 90.6754 23.4012 91.0124C23.2791 91.3494 23.2463 91.7122 23.3059 92.0656C23.6588 93.1279 24.2978 94.0723 25.1526 94.795C28.2547 97.5031 31.8918 99.5285 35.8275 100.74C36.2103 100.852 36.5549 101.068 36.8239 101.362C37.093 101.657 37.2763 102.019 37.3538 102.411C37.4314 102.802 37.4003 103.207 37.264 103.582C37.1277 103.957 36.8912 104.287 36.5804 104.538C32.049 108.173 29.7865 111.501 29.1074 114.44C28.6163 116.524 28.9573 118.717 30.0578 120.553C31.3243 122.588 33.0558 124.292 35.1097 125.527Z" fill="#231F20"/>
<path fill-rule="evenodd" clip-rule="evenodd" d="M140.335 182.581C127.044 189.259 112.375 192.737 97.5001 192.737C82.6253 192.737 67.9566 189.259 54.6649 182.581C54.5519 181.31 54.4897 180.024 54.4897 178.723C54.4897 167.316 59.0211 156.376 67.087 148.311C75.1529 140.245 86.0926 135.713 97.4994 135.713C108.906 135.713 119.846 140.245 127.912 148.311C135.978 156.376 140.509 167.316 140.509 178.723C140.51 180.024 140.448 181.31 140.335 182.581Z" fill="#AEA9D4"/>
<path fill-rule="evenodd" clip-rule="evenodd" d="M141.319 184.532C127.728 191.381 112.72 194.948 97.5 194.948C82.2803 194.948 67.2725 191.381 53.681 184.532C53.3282 184.354 53.0303 184.083 52.819 183.749C52.6076 183.416 52.4908 183.031 52.481 182.636C52.4245 181.981 52.3811 181.354 52.3537 180.758C52.3189 179.991 52.3003 179.307 52.3003 178.723C52.3003 166.735 57.0624 155.239 65.539 146.762C74.0156 138.285 85.5123 133.523 97.5 133.523C109.488 133.523 120.984 138.285 129.461 146.762C137.938 155.239 142.7 166.735 142.7 178.723C142.7 179.307 142.681 179.99 142.646 180.758C142.617 181.393 142.57 182.067 142.508 182.77C142.476 183.14 142.35 183.496 142.141 183.804C141.933 184.111 141.649 184.361 141.317 184.528L141.319 184.532ZM119.039 188.041C125.677 186.468 132.121 184.166 138.252 181.176L138.284 180.569C138.307 180.051 138.32 179.439 138.32 178.723C138.32 167.896 134.019 157.514 126.364 149.859C118.709 142.203 108.326 137.903 97.5 137.903C86.674 137.903 76.2913 142.203 68.6362 149.859C60.981 157.514 56.6804 167.896 56.6804 178.723C56.6804 179.439 56.6933 180.051 56.7163 180.569L56.748 181.176C76.1032 190.563 98.104 192.988 119.039 188.041Z" fill="#231F20"/>
<path d="M97.5 162.756C107.036 162.756 114.766 155.026 114.766 145.49C114.766 135.954 107.036 128.224 97.5 128.224C87.9643 128.224 80.2341 135.954 80.2341 145.49C80.2341 155.026 87.9643 162.756 97.5 162.756Z" fill="#F9DDD1"/>
<path fill-rule="evenodd" clip-rule="evenodd" d="M97.5 126.034C102.002 126.034 106.364 127.594 109.844 130.45C113.325 133.305 115.707 137.279 116.585 141.694C117.464 146.109 116.784 150.693 114.663 154.663C112.541 158.633 109.108 161.745 104.949 163.468C100.79 165.191 96.1623 165.418 91.8543 164.112C87.5464 162.805 83.8248 160.045 81.3237 156.302C78.8226 152.559 77.6967 148.065 78.1379 143.585C78.5791 139.105 80.5601 134.916 83.7433 131.733C85.5477 129.924 87.692 128.489 90.0529 127.511C92.4137 126.533 94.9446 126.031 97.5 126.034ZM108.16 134.829C105.694 132.362 102.449 130.827 98.9772 130.485C95.5057 130.143 92.023 131.015 89.1225 132.953C86.222 134.891 84.0832 137.774 83.0705 141.112C82.0577 144.45 82.2337 148.036 83.5685 151.259C84.9033 154.482 87.3143 157.142 90.3906 158.787C93.4669 160.431 97.0183 160.958 100.44 160.278C103.861 159.597 106.94 157.751 109.153 155.055C111.366 152.359 112.576 148.978 112.576 145.49C112.578 143.51 112.19 141.548 111.432 139.719C110.674 137.889 109.562 136.228 108.16 134.829Z" fill="#231F20"/>
<path fill-rule="evenodd" clip-rule="evenodd" d="M139.138 103.703C141.274 103.703 143.362 104.336 145.138 105.523C146.914 106.709 148.298 108.396 149.115 110.369C149.932 112.342 150.146 114.513 149.73 116.608C149.313 118.703 148.284 120.627 146.774 122.137C145.264 123.647 143.34 124.676 141.245 125.092C139.15 125.509 136.979 125.295 135.006 124.478C133.033 123.661 131.346 122.277 130.16 120.501C128.973 118.725 128.34 116.637 128.34 114.501C128.34 113.083 128.619 111.679 129.162 110.369C129.705 109.059 130.5 107.868 131.503 106.866C132.505 105.863 133.696 105.068 135.006 104.525C136.316 103.982 137.72 103.703 139.138 103.703Z" fill="#F9DDD1"/>
<path fill-rule="evenodd" clip-rule="evenodd" d="M139.139 101.513C142.144 101.513 145.056 102.554 147.38 104.461C149.703 106.367 151.293 109.02 151.88 111.968C152.467 114.915 152.013 117.975 150.596 120.625C149.18 123.276 146.888 125.353 144.112 126.504C141.335 127.654 138.246 127.806 135.37 126.933C132.494 126.061 130.009 124.219 128.34 121.72C126.67 119.221 125.918 116.221 126.213 113.23C126.507 110.239 127.83 107.443 129.955 105.318C131.16 104.11 132.591 103.152 134.167 102.499C135.743 101.846 137.433 101.511 139.139 101.513ZM145.226 108.414C143.818 107.005 141.964 106.127 139.982 105.932C137.999 105.736 136.01 106.234 134.353 107.341C132.696 108.447 131.474 110.094 130.896 112C130.317 113.907 130.417 115.955 131.179 117.796C131.942 119.637 133.319 121.156 135.076 122.095C136.833 123.035 138.861 123.336 140.815 122.947C142.769 122.559 144.528 121.505 145.792 119.965C147.056 118.425 147.747 116.494 147.747 114.501C147.748 113.371 147.527 112.251 147.094 111.206C146.661 110.161 146.027 109.212 145.226 108.414Z" fill="#231F20"/>
<path fill-rule="evenodd" clip-rule="evenodd" d="M55.8624 103.703C57.9982 103.703 60.086 104.336 61.8618 105.523C63.6376 106.709 65.0216 108.396 65.8389 110.369C66.6562 112.342 66.8701 114.514 66.4534 116.608C66.0367 118.703 65.0082 120.627 63.498 122.137C61.9878 123.647 60.0637 124.676 57.969 125.093C55.8743 125.509 53.703 125.295 51.7299 124.478C49.7567 123.661 48.0703 122.276 46.8837 120.501C45.6972 118.725 45.0639 116.637 45.064 114.501C45.0639 113.083 45.3432 111.679 45.8858 110.369C46.4285 109.059 47.2239 107.868 48.2266 106.866C49.2294 105.863 50.4198 105.067 51.73 104.525C53.0401 103.982 54.4443 103.703 55.8624 103.703Z" fill="#F9DDD1"/>
<path fill-rule="evenodd" clip-rule="evenodd" d="M55.8624 101.513C58.8676 101.513 61.7799 102.555 64.1031 104.461C66.4263 106.367 68.0166 109.02 68.6031 111.967C69.1895 114.915 68.7359 117.974 67.3194 120.625C65.9029 123.275 63.6112 125.353 60.8348 126.503C58.0584 127.653 54.9691 127.805 52.0933 126.933C49.2174 126.06 46.733 124.218 45.0634 121.719C43.3937 119.221 42.6421 116.22 42.9366 113.229C43.2311 110.239 44.5535 107.443 46.6784 105.318C47.8832 104.11 49.3147 103.152 50.8908 102.499C52.4668 101.846 54.1564 101.511 55.8624 101.513ZM61.9501 108.414C60.5416 107.005 58.6882 106.128 56.7056 105.932C54.723 105.737 52.7339 106.235 51.0773 107.341C49.4206 108.448 48.1989 110.094 47.6204 112.001C47.0419 113.907 47.1423 115.955 47.9045 117.796C48.6667 119.637 50.0436 121.156 51.8005 122.095C53.5574 123.034 55.5857 123.335 57.5396 122.947C59.4936 122.558 61.2524 121.504 62.5163 119.964C63.7802 118.424 64.471 116.494 64.471 114.501C64.4725 113.371 64.2505 112.251 63.8179 111.206C63.3853 110.161 62.7505 109.212 61.9501 108.414Z" fill="#231F20"/>
<path d="M97.4999 145.9C121.083 145.9 140.202 126.781 140.202 103.198C140.202 79.6142 121.083 60.496 97.4999 60.496C73.9164 60.496 54.7981 79.6142 54.7981 103.198C54.7981 126.781 73.9164 145.9 97.4999 145.9Z" fill="#F9DDD1"/>
<path fill-rule="evenodd" clip-rule="evenodd" d="M97.5 58.3059C107.887 58.3056 117.952 61.9068 125.981 68.4958C134.01 75.0849 139.506 84.254 141.533 94.441C143.559 104.628 141.991 115.203 137.094 124.363C132.198 133.523 124.277 140.702 114.681 144.677C105.085 148.652 94.4082 149.176 84.4688 146.161C74.5295 143.146 65.9432 136.777 60.1728 128.141C54.4025 119.505 51.8052 109.135 52.8235 98.7985C53.8418 88.462 58.4128 78.7983 65.7574 71.4541C69.9213 67.2793 74.8691 63.9684 80.3165 61.7119C85.764 59.4553 91.6037 58.2984 97.5 58.3059ZM126.146 74.5512C119.519 67.9233 110.798 63.7984 101.47 62.8795C92.1426 61.9606 82.7847 64.3044 74.9912 69.5116C67.1977 74.7189 61.4509 82.4673 58.7299 91.4366C56.0089 100.406 56.4821 110.041 60.0689 118.701C63.6556 127.361 70.1341 134.509 78.4003 138.927C86.6665 143.346 96.209 144.761 105.402 142.933C114.595 141.104 122.869 136.145 128.816 128.899C134.762 121.654 138.012 112.571 138.012 103.198C138.019 97.8767 136.974 92.6066 134.938 87.6904C132.902 82.7742 129.914 78.309 126.146 74.5512Z" fill="#231F20"/>
<path fill-rule="evenodd" clip-rule="evenodd" d="M79.2279 108.958C80.3243 108.958 81.3961 109.283 82.3077 109.892C83.2193 110.501 83.9299 111.367 84.3495 112.38C84.769 113.393 84.8788 114.508 84.665 115.583C84.4511 116.658 83.9231 117.646 83.1479 118.421C82.3726 119.196 81.3849 119.724 80.3095 119.938C79.2342 120.152 78.1196 120.042 77.1067 119.623C76.0938 119.203 75.228 118.493 74.6189 117.581C74.0098 116.669 73.6848 115.598 73.6848 114.501C73.6848 113.031 74.2688 111.621 75.3084 110.582C76.3479 109.542 77.7578 108.958 79.2279 108.958Z" fill="#231F20"/>
<path fill-rule="evenodd" clip-rule="evenodd" d="M115.771 108.958C116.867 108.958 117.939 109.283 118.851 109.892C119.762 110.501 120.473 111.367 120.892 112.38C121.312 113.393 121.422 114.508 121.208 115.583C120.994 116.658 120.466 117.646 119.691 118.421C118.916 119.196 117.928 119.724 116.853 119.938C115.777 120.152 114.663 120.042 113.65 119.623C112.637 119.203 111.771 118.493 111.162 117.581C110.553 116.669 110.228 115.598 110.228 114.501C110.228 113.031 110.812 111.621 111.851 110.582C112.891 109.542 114.301 108.958 115.771 108.958Z" fill="#231F20"/>
<path fill-rule="evenodd" clip-rule="evenodd" d="M79.5832 50.5386C84.8593 44.2021 110.485 43.9774 115.749 50.5057L147.106 89.3971C140.381 94.8565 129.049 96.396 117.795 92.5778C107.941 89.2357 100.542 82.5994 97.4994 75.3454C94.4573 82.5994 87.0568 89.235 77.2044 92.5793C65.727 96.4724 54.1707 94.7941 47.5002 89.0695L79.5832 50.5386Z" fill="#FFFCD5"/>
<path fill-rule="evenodd" clip-rule="evenodd" d="M142.406 89.8375C142.923 89.5826 143.519 89.542 144.065 89.7247C144.612 89.9073 145.064 90.2983 145.323 90.8126C145.583 91.3269 145.629 91.9229 145.451 92.4708C145.273 93.0187 144.886 93.4742 144.374 93.7382C140.323 95.7095 135.89 96.7724 131.385 96.8526C121.359 97.0626 111.593 93.6568 103.871 87.2578C101.398 85.1828 99.2495 82.748 97.499 80.0349C95.749 82.7482 93.6008 85.1829 91.1266 87.2572C83.4244 93.6422 73.6852 97.0486 63.6824 96.8561C59.1977 96.7825 54.7823 95.7373 50.7405 93.7927C50.483 93.6655 50.2531 93.4887 50.0641 93.2723C49.8751 93.056 49.7307 92.8045 49.6392 92.5322C49.5477 92.2599 49.5109 91.9722 49.5309 91.6856C49.551 91.3991 49.6274 91.1193 49.7559 90.8624C49.8843 90.6054 50.0623 90.3764 50.2796 90.1885C50.4968 90.0005 50.749 89.8573 51.0218 89.7672C51.2945 89.677 51.5824 89.6416 51.8688 89.663C52.1553 89.6845 52.4347 89.7623 52.691 89.892C56.1635 91.5512 59.9541 92.4387 63.8022 92.4935C72.731 92.6497 81.4216 89.6098 88.3063 83.9223C91.4007 81.3839 93.8578 78.1563 95.4809 74.4979C95.648 74.1006 95.9287 73.7613 96.2878 73.5228C96.6468 73.2843 97.0683 73.157 97.4994 73.157C97.9305 73.157 98.352 73.2843 98.7111 73.5228C99.0702 73.7613 99.3509 74.1006 99.518 74.4979C101.142 78.156 103.6 81.3834 106.695 83.9219C113.598 89.6233 122.315 92.663 131.266 92.49C135.128 92.427 138.93 91.5217 142.406 89.8375Z" fill="#231F20"/>
<path d="M99.6902 42.4721H95.3101V75.8125H99.6902V42.4721Z" fill="#231F20"/>
<path fill-rule="evenodd" clip-rule="evenodd" d="M142.403 74.6965C144.86 74.6965 146.878 78.2112 147.103 82.7015C150.437 79.6848 154.35 78.6264 156.087 80.3638C157.824 82.1012 156.765 86.0136 153.749 89.3478C158.239 89.5725 161.754 91.5904 161.754 94.0474C161.754 96.5044 158.239 98.5223 153.749 98.747C156.765 102.081 157.823 105.994 156.086 107.73C154.348 109.467 150.436 108.409 147.103 105.393C146.878 109.884 144.86 113.399 142.403 113.399C139.946 113.399 137.928 109.884 137.703 105.393C134.369 108.409 130.457 109.468 128.72 107.73C126.983 105.993 128.041 102.081 131.057 98.747C126.567 98.5223 123.052 96.5044 123.052 94.0474C123.052 91.5904 126.567 89.5725 131.057 89.3478C128.04 86.0131 126.982 82.1006 128.719 80.3638C130.457 78.6271 134.369 79.685 137.703 82.7015C137.928 78.2123 139.946 74.6965 142.403 74.6965ZM141.667 95.8269C142.147 95.6838 142.659 95.6838 143.139 95.8269C143.378 95.3857 143.74 95.0236 144.181 94.7847C144.038 94.3039 144.038 93.7918 144.181 93.311C143.74 93.0725 143.379 92.7111 143.14 92.2708C142.659 92.4139 142.147 92.4139 141.665 92.2708C141.427 92.7113 141.065 93.073 140.624 93.3116C140.768 93.7922 140.768 94.3041 140.624 94.7847C141.066 95.0233 141.428 95.3855 141.667 95.8269Z" fill="white"/>
<path fill-rule="evenodd" clip-rule="evenodd" d="M142.403 72.5065C143.471 72.568 144.504 72.9143 145.393 73.5095C146.282 74.1048 146.996 74.9271 147.46 75.8913C147.996 76.8268 148.41 77.8271 148.691 78.868C149.627 78.3296 150.628 77.9138 151.669 77.6307C152.669 77.2158 153.77 77.1069 154.832 77.3178C155.894 77.5288 156.87 78.0501 157.636 78.8158C158.401 79.5815 158.923 80.5571 159.134 81.6192C159.344 82.6813 159.236 83.7821 158.821 84.7822C158.537 85.8235 158.122 86.8241 157.584 87.7593C158.624 88.0405 159.625 88.4542 160.56 88.9902C161.561 89.4033 162.418 90.1044 163.02 91.0047C163.623 91.9051 163.945 92.964 163.945 94.0474C163.945 95.1308 163.623 96.1897 163.02 97.0901C162.418 97.9904 161.561 98.6915 160.56 99.1046C159.625 99.6406 158.624 100.054 157.584 100.335C158.122 101.271 158.537 102.272 158.82 103.314C159.171 104.322 159.246 105.406 159.038 106.454C158.83 107.501 158.345 108.474 157.635 109.272L157.631 109.275L157.627 109.28L157.616 109.291C156.818 109.997 155.847 110.477 154.802 110.684C153.757 110.89 152.675 110.814 151.669 110.465C150.628 110.182 149.627 109.766 148.691 109.228C148.41 110.269 147.996 111.27 147.46 112.206C147.047 113.208 146.346 114.064 145.446 114.667C144.545 115.27 143.486 115.591 142.403 115.591C141.319 115.591 140.26 115.27 139.36 114.667C138.46 114.064 137.759 113.208 137.346 112.206C136.81 111.27 136.396 110.269 136.115 109.228C135.18 109.766 134.179 110.182 133.138 110.465C132.129 110.815 131.045 110.891 129.998 110.682C128.95 110.474 127.978 109.99 127.18 109.28L127.176 109.275L127.172 109.272L127.161 109.26C126.455 108.462 125.974 107.491 125.768 106.446C125.562 105.401 125.637 104.32 125.987 103.314C126.27 102.272 126.685 101.271 127.223 100.335C126.182 100.054 125.182 99.6406 124.246 99.1046C123.245 98.6915 122.388 97.9904 121.786 97.0901C121.183 96.1897 120.862 95.1308 120.862 94.0474C120.862 92.964 121.183 91.9051 121.786 91.0047C122.388 90.1044 123.245 89.4033 124.246 88.9902C125.182 88.4541 126.182 88.0404 127.223 87.7593C126.685 86.8237 126.269 85.8228 125.986 84.7812C125.571 83.781 125.463 82.6802 125.673 81.6182C125.884 80.5561 126.406 79.5805 127.171 78.8149C127.937 78.0493 128.913 77.528 129.975 77.3172C131.037 77.1063 132.138 77.2153 133.138 77.6303C134.179 77.9134 135.18 78.3292 136.115 78.8675C136.396 77.8267 136.81 76.8263 137.346 75.8909C137.81 74.9267 138.524 74.1043 139.413 73.5091C140.302 72.9138 141.335 72.568 142.403 72.5065ZM143.695 78.0987C143.253 77.3458 142.791 76.8864 142.403 76.8864C142.015 76.8864 141.552 77.3462 141.111 78.0987C140.342 79.5505 139.922 81.1615 139.885 82.804H139.882C139.862 83.2168 139.726 83.6158 139.489 83.9542C139.251 84.2926 138.923 84.5565 138.541 84.7153C138.159 84.874 137.74 84.9211 137.333 84.8508C136.926 84.7806 136.547 84.596 136.24 84.3187C135.052 83.1824 133.614 82.3391 132.043 81.8558C131.195 81.6355 130.542 81.6368 130.267 81.9112C129.993 82.1855 129.993 82.8386 130.212 83.6849C130.683 85.2237 131.501 86.6336 132.604 87.8053C132.903 88.1048 133.108 88.4846 133.195 88.8986C133.282 89.3126 133.246 89.7429 133.093 90.1372C132.94 90.5316 132.676 90.8729 132.332 91.1198C131.989 91.3667 131.581 91.5085 131.159 91.528C129.516 91.5651 127.905 91.9846 126.453 92.7532C125.701 93.1953 125.24 93.6572 125.24 94.0452C125.24 94.4333 125.7 94.8962 126.453 95.3372C127.905 96.1058 129.516 96.5253 131.159 96.5624V96.5655C131.571 96.5849 131.97 96.7213 132.309 96.9587C132.647 97.196 132.911 97.5247 133.07 97.9063C133.228 98.2879 133.275 98.7067 133.205 99.114C133.135 99.5213 132.95 99.9003 132.673 100.207C131.537 101.395 130.694 102.833 130.212 104.404C129.991 105.255 129.989 105.909 130.259 106.178L130.267 106.186C130.537 106.456 131.191 106.454 132.041 106.233C133.58 105.765 134.991 104.948 136.163 103.846C136.463 103.548 136.843 103.342 137.257 103.255C137.671 103.168 138.101 103.204 138.495 103.357C138.89 103.51 139.231 103.774 139.478 104.118C139.725 104.461 139.867 104.869 139.886 105.292C139.923 106.934 140.343 108.546 141.112 109.997C141.554 110.75 142.016 111.21 142.404 111.21C142.793 111.21 143.255 110.75 143.696 109.997C144.465 108.546 144.885 106.934 144.923 105.292H144.926C144.945 104.879 145.081 104.48 145.319 104.142C145.556 103.803 145.885 103.539 146.266 103.38C146.648 103.222 147.067 103.175 147.474 103.245C147.881 103.315 148.26 103.5 148.567 103.777C149.755 104.913 151.193 105.756 152.764 106.238C153.615 106.459 154.27 106.461 154.538 106.191L154.546 106.183C154.816 105.914 154.814 105.26 154.593 104.409C154.123 102.871 153.305 101.461 152.202 100.29C151.904 99.9902 151.698 99.6104 151.611 99.1964C151.524 98.7824 151.56 98.3521 151.713 97.9578C151.866 97.5635 152.13 97.2221 152.474 96.9752C152.817 96.7283 153.225 96.5865 153.648 96.567C155.29 96.5299 156.901 96.1104 158.353 95.3418C159.106 94.8997 159.565 94.4379 159.565 94.0498C159.565 93.6618 159.105 93.1989 158.353 92.7578C156.901 91.9892 155.29 91.5697 153.648 91.5326V91.526C153.235 91.5066 152.836 91.3703 152.497 91.133C152.159 90.8956 151.895 90.5669 151.736 90.1853C151.578 89.8037 151.531 89.3849 151.601 88.9776C151.671 88.5703 151.856 88.1913 152.133 87.8848C153.269 86.6962 154.112 85.2589 154.595 83.6873C154.815 82.8394 154.814 82.1858 154.539 81.912C154.265 81.6383 153.611 81.637 152.764 81.8566C151.227 82.3273 149.818 83.1447 148.647 84.246C148.348 84.545 147.968 84.7507 147.554 84.838C147.14 84.9254 146.71 84.8905 146.315 84.7378C145.921 84.585 145.579 84.321 145.332 83.9776C145.084 83.6343 144.942 83.2266 144.922 82.804C144.885 81.1615 144.464 79.5505 143.695 78.0987ZM142.341 97.9096L142.402 97.9085L142.463 97.9096L142.531 97.9214C143.011 98.0599 143.523 98.0301 143.983 97.8369C144.443 97.6436 144.823 97.2987 145.06 96.8594L145.063 96.8611L145.095 96.8173L145.126 96.7735L145.131 96.7766C145.164 96.7437 145.153 96.7475 145.164 96.7394L145.223 96.6995C145.659 96.4613 146.001 96.0811 146.193 95.6219C146.384 95.1628 146.412 94.6521 146.274 94.1744L146.263 94.1024L146.261 94.0472L146.262 93.9846L146.274 93.9254C146.415 93.4417 146.386 92.9239 146.19 92.4596C145.993 91.9953 145.643 91.613 145.197 91.3773L145.165 91.3555L145.13 91.3169C145.119 91.3048 145.106 91.2938 145.093 91.2841L145.054 91.2258C144.815 90.7879 144.434 90.4448 143.974 90.2536C143.513 90.0623 143.001 90.0345 142.523 90.1747L142.464 90.1848L142.401 90.1859L142.338 90.1848L142.279 90.1729C141.796 90.0316 141.278 90.0616 140.814 90.2579C140.35 90.4541 139.968 90.8046 139.733 91.2501L139.711 91.283L139.673 91.3171C139.64 91.35 139.651 91.3463 139.64 91.3544L139.581 91.3942C139.143 91.6327 138.8 92.0139 138.609 92.4744C138.418 92.9349 138.39 93.4469 138.53 93.9254L138.54 93.9839L138.541 94.0465L138.54 94.1074L138.528 94.1757C138.39 94.6551 138.419 95.1676 138.613 95.6277C138.806 96.0878 139.151 96.4678 139.59 96.7045L139.588 96.7076L139.632 96.7394L139.676 96.7709L139.681 96.7759L139.709 96.8081L139.714 96.8138L139.709 96.8169L139.741 96.8607C139.981 97.3062 140.368 97.6547 140.836 97.847C141.304 98.0392 141.824 98.0632 142.308 97.9149L142.341 97.9096Z" fill="#231F20"/>
<path fill-rule="evenodd" clip-rule="evenodd" d="M138.848 80.3601L149.935 105.9L145.932 107.628L134.845 82.0879L138.848 80.3601Z" fill="#231F20"/>
<path fill-rule="evenodd" clip-rule="evenodd" d="M149.057 82.6025L139.695 106.088L135.642 104.481L145.004 80.9951L149.057 82.6025Z" fill="#231F20"/>
<path d="M153.335 87.3361L130.259 96.9439L131.939 100.98L155.015 91.372L153.335 87.3361Z" fill="#231F20"/>
<path d="M132.052 87.1049L130.31 91.1101L153.714 101.293L155.457 97.2876L132.052 87.1049Z" fill="#231F20"/>
<path fill-rule="evenodd" clip-rule="evenodd" d="M142.403 88.7099C143.459 88.71 144.491 89.0231 145.368 89.6097C146.246 90.1963 146.93 91.0299 147.334 92.0052C147.738 92.9806 147.844 94.0538 147.637 95.0891C147.431 96.1245 146.923 97.0755 146.177 97.8219C145.43 98.5683 144.479 99.0766 143.444 99.2824C142.408 99.4883 141.335 99.3825 140.36 98.9784C139.384 98.5744 138.551 97.8902 137.964 97.0124C137.378 96.1346 137.065 95.1026 137.065 94.047C137.065 92.6314 137.628 91.274 138.629 90.2731C139.63 89.2723 140.988 88.71 142.403 88.7099Z" fill="#FFF200"/>
<path fill-rule="evenodd" clip-rule="evenodd" d="M142.403 86.5201C144.145 86.5193 145.834 87.1227 147.181 88.2275C148.528 89.3322 149.451 90.8699 149.791 92.5785C150.132 94.2872 149.869 96.061 149.048 97.5977C148.227 99.1345 146.899 100.339 145.29 101.006C143.68 101.673 141.889 101.762 140.222 101.256C138.555 100.751 137.114 99.6827 136.146 98.2342C135.178 96.7858 134.742 95.0464 134.913 93.3125C135.083 91.5787 135.85 89.9577 137.082 88.7257C137.78 88.0257 138.609 87.4706 139.522 87.092C140.436 86.7135 141.415 86.5192 142.403 86.5201ZM144.629 91.8219C144.114 91.3068 143.437 90.9862 142.712 90.9148C141.987 90.8433 141.26 91.0254 140.654 91.43C140.049 91.8346 139.602 92.4366 139.391 93.1335C139.179 93.8305 139.216 94.5792 139.495 95.2521C139.773 95.9249 140.277 96.4803 140.919 96.8237C141.561 97.167 142.303 97.2769 143.017 97.1348C143.731 96.9927 144.374 96.6073 144.836 96.0443C145.298 95.4813 145.551 94.7755 145.551 94.0472C145.551 93.6339 145.47 93.2246 145.312 92.8427C145.154 92.4609 144.922 92.1138 144.629 91.8219Z" fill="#231F20"/>
</g>
<defs>
<clipPath id="clip0_62_72">
<rect width="195" height="195" fill="white"/>
</clipPath>
</defs>
</svg>
