<svg width="465" height="321" viewBox="0 0 465 321" fill="none" xmlns="http://www.w3.org/2000/svg">
<path fill-rule="evenodd" clip-rule="evenodd" d="M425.681 163.618C425.381 143.091 410.893 126.564 392.078 121.085C398.661 108.994 399.989 94.3882 395.91 81.2246C389.847 61.6549 369.818 49.1762 349.208 49.3883C346.748 49.4125 344.325 49.7034 341.892 50.0428L334.297 51.1459C330.442 40.8792 324.478 31.7883 316.666 23.8307C312.431 19.5216 307.184 15.6853 301.643 13.1459C289.941 7.77621 285.395 7.09744 272.544 5.97017C260.883 4.94593 246.677 10.0004 236.852 15.7822C232.457 18.3701 228.456 21.3944 224.783 24.7519C214.5 17.8247 203.143 12.1702 191.462 9.17625C185.412 7.62474 178.822 6.5035 172.583 7.18229C158.589 8.7035 159.535 8.8368 146.835 14.2732C142.399 16.1701 138.805 19.7883 135.22 22.8974C128.427 28.7822 122.525 40.0489 120.697 48.6186C120.596 49.0974 120.497 49.5701 120.403 50.0489C120.188 50.0489 119.976 50.0428 119.762 50.0428C113.209 49.3519 109.264 50.7822 102.859 52.0125C92.9799 53.9216 84.7661 60.1216 77.3968 66.4125C65.5148 76.5579 59.7594 95.2609 60.9048 110.334C60.9905 114.988 61.7561 119.455 63.1948 123.715C44.7729 129.788 31.0179 147.334 31.3095 167.261C31.6139 187.994 46.4033 204.643 65.5008 209.946C65.3035 211.709 65.2019 213.491 65.2276 215.297C65.5975 240.57 86.8019 259.77 111.774 259.77C120.806 259.77 127.351 257.006 134.566 252.315C135.393 254.176 136.339 255.994 137.426 257.733C139.897 260.746 142.368 263.758 144.839 266.764C150.759 272.297 157.663 276.067 165.549 278.079C171.366 279.976 177.821 280.588 183.932 280.255C195.565 279.624 202.992 277.23 213.322 272.03C219.538 268.897 224.843 263.521 228.714 257.382C230.021 259.036 231.436 260.636 232.958 262.158C236.915 266.115 241.627 269.364 246.417 272.255C255.043 277.461 263.954 278.521 273.764 279.152C283.036 279.752 292.835 275.685 300.81 271.648C305.904 269.073 310.721 264.982 314.419 260.558C316.8 257.479 319.181 254.394 321.563 251.315C322.036 250.497 322.479 249.673 322.897 248.842C331.224 255.497 341.886 259.442 353.191 259.442C378.172 259.442 400.772 237.703 400.409 212.976C400.368 210.188 400.05 207.473 399.511 204.849C414.989 197.333 425.943 181.424 425.681 163.618Z" fill="#FFC5C5"/>
<path fill-rule="evenodd" clip-rule="evenodd" d="M125.997 46.3337C132.893 28.9761 149.619 16.9883 167.42 12.3095C188.243 6.84283 210.047 12.7035 225.916 26.9034C229.881 30.4489 235.778 24.6488 231.794 21.0852C213.549 4.75797 189.128 -1.60562 165.209 4.37619C144.382 9.59436 125.903 24.2065 117.98 44.1519C116.016 49.0913 124.059 51.2125 125.997 46.3337Z" fill="#FF9FA0"/>
<path fill-rule="evenodd" clip-rule="evenodd" d="M233.014 24.6549C246.608 7.78225 270.154 5.38835 289.99 11.0611C311.428 17.2005 329.484 33.6792 332.909 56.0671C333.71 61.2973 341.72 59.0671 340.927 53.8792C337.236 29.7701 318.042 11.9823 295.506 4.17624C274.374 -3.14495 248.517 -1.44193 231.52 14.1035C229.928 15.558 228.485 17.1641 227.135 18.8429C223.83 22.9459 229.672 28.8065 233.014 24.6549Z" fill="#FF9FA0"/>
<path fill-rule="evenodd" clip-rule="evenodd" d="M129.813 44.0851C108.048 40.5033 85.5874 48.3457 70.4894 64.2184C63.3841 71.6851 58.235 81.0487 56.1814 91.1275C53.862 102.497 55.9683 113.934 60.9103 124.334C63.1893 129.133 70.3559 124.952 68.0879 120.182C59.7582 102.655 63.6836 83.3699 76.943 69.4305C89.6157 56.1093 109.268 49.0003 127.602 52.0184C132.845 52.879 135.092 44.9518 129.813 44.0851Z" fill="#FF9FA0"/>
<path fill-rule="evenodd" clip-rule="evenodd" d="M63.3932 118.291C42.5164 126.709 24.2304 144.037 24.7657 167.8C25.2845 190.842 44.0084 207.527 64.7357 214.582C69.8192 216.309 71.9837 208.364 66.9455 206.649C49.5813 200.739 33.8254 187.043 33.0788 167.8C32.3108 148.03 48.3588 133.176 65.6042 126.224C70.4997 124.249 68.3609 116.291 63.3932 118.291Z" fill="#FF9FA0"/>
<path fill-rule="evenodd" clip-rule="evenodd" d="M336.974 51.0913C354.731 48.7156 373.112 54.9762 383.702 69.6852C393.49 83.2852 394.523 101.182 386.667 115.885C384.165 120.57 391.34 124.728 393.845 120.037C403.221 102.485 402.16 81.2003 390.456 64.9458C377.673 47.1883 356.051 40.3095 334.765 43.158C332.514 43.455 331.321 46.2792 331.86 48.2186C332.522 50.5943 334.73 51.3883 336.974 51.0913Z" fill="#FF9FA0"/>
<path fill-rule="evenodd" clip-rule="evenodd" d="M390.443 122.406C408.201 127.891 423.207 141.582 424.829 160.691C426.271 177.685 416.311 193.715 400.421 200.285C398.332 201.152 396.859 202.976 397.518 205.346C398.061 207.297 400.536 209.085 402.631 208.218C421.798 200.297 434.355 182.115 433.186 161.309C431.886 138.182 414.146 121.109 392.652 114.473C387.52 112.885 385.343 120.831 390.443 122.406Z" fill="#FF9FA0"/>
<path fill-rule="evenodd" clip-rule="evenodd" d="M65.3917 198.018C61.2642 208.249 59.9401 219.442 62.8432 230.176C65.4829 239.927 71.8888 248.121 80.1357 253.897C99.8518 267.709 126.496 262.951 145.79 251.085C150.332 248.297 146.161 241.176 141.594 243.982C124.589 254.442 102.576 258.648 84.94 247.206C78.0527 242.733 73.1284 235.77 70.8592 227.988C68.16 218.727 69.864 208.988 73.4083 200.2C75.3976 195.273 67.354 193.152 65.3917 198.018Z" fill="#FF9FA0"/>
<path fill-rule="evenodd" clip-rule="evenodd" d="M131.248 256.939C140.119 272.897 157.022 282.891 175.068 285.085C196.961 287.751 217.982 278.63 233.37 263.503C237.177 259.764 231.297 253.945 227.491 257.691C213.902 271.048 195.995 278.867 176.68 277.048C160.956 275.564 146.069 266.539 138.426 252.788C135.843 248.139 128.663 252.285 131.248 256.939Z" fill="#FF9FA0"/>
<path fill-rule="evenodd" clip-rule="evenodd" d="M228.106 263.721C243.954 279.479 265.859 288 288.218 283.079C311.241 278.006 327.712 259.315 336.43 238.527C337.299 236.448 335.506 234.006 333.527 233.467C331.136 232.818 329.281 234.273 328.413 236.339C320.702 254.727 306.057 270.442 286.007 275.145C266.714 279.667 247.518 271.364 233.984 257.903C230.2 254.139 224.322 259.958 228.106 263.721Z" fill="#FF9FA0"/>
<path fill-rule="evenodd" clip-rule="evenodd" d="M321.605 256.273C344.136 265.806 370.244 264.624 388.775 247.527C405.29 232.285 408.854 208.206 398.391 188.649C395.882 183.958 388.707 188.115 391.212 192.8C399.942 209.115 396.609 228.273 383.435 241.194C368.161 256.176 344.79 257.206 325.801 249.17C323.717 248.285 321.912 248.594 320.662 250.709C319.625 252.461 319.52 255.388 321.605 256.273Z" fill="#FF9FA0"/>
<path fill-rule="evenodd" clip-rule="evenodd" d="M223.494 24.6671C227.035 29.9519 229.313 35.2065 230.191 41.5277C230.5 43.752 233.34 44.9338 235.304 44.4004C237.702 43.7459 238.515 41.558 238.207 39.3398C237.244 32.4065 234.558 26.3156 230.672 20.5156C227.724 16.1156 220.522 20.2307 223.494 24.6671Z" fill="#FF9FA0"/>
<path fill-rule="evenodd" clip-rule="evenodd" d="M108.517 199.843C116.226 188.321 120.503 173.746 114.011 160.727C107.571 147.812 92.0183 143.418 78.5273 143.715C74.3294 143.806 74.3196 150.261 78.5273 150.17C89.8471 149.921 102.136 152.976 108.066 163.394C114.171 174.115 109.163 187.206 102.887 196.582C100.559 200.067 106.207 203.291 108.517 199.843Z" fill="#FF9FA0"/>
<path fill-rule="evenodd" clip-rule="evenodd" d="M348.813 116.249C336.975 122.588 328.662 135.346 334.639 148.527C340.748 161.994 357.986 162.358 369.875 157.4C373.687 155.812 372.014 149.564 368.141 151.182C358.748 155.097 346.008 156.091 340.508 145.758C335.295 135.964 343.866 126.23 352.104 121.818C355.804 119.837 352.511 114.267 348.813 116.249Z" fill="#FF9FA0"/>
<path fill-rule="evenodd" clip-rule="evenodd" d="M198.38 241.139C209.763 221.582 244.199 220.145 253.028 242.854C254.522 246.691 260.827 245.024 259.315 241.139C248.533 213.406 207.175 213.097 192.75 237.885C190.648 241.491 196.283 244.739 198.38 241.139Z" fill="#FF9FA0"/>
<path fill-rule="evenodd" clip-rule="evenodd" d="M365.206 152.485C355.033 160.115 353.582 171.497 358.46 182.697C360.12 186.509 365.735 183.218 364.091 179.442C360.755 171.782 361.431 163.358 368.497 158.061C371.801 155.582 368.559 149.97 365.206 152.485Z" fill="#FF9FA0"/>
<path fill-rule="evenodd" clip-rule="evenodd" d="M81.5604 150.103C92.0869 147.74 104.261 134.376 100.445 123.134C99.1132 119.212 92.8145 120.891 94.1571 124.849C96.8446 132.764 86.9746 142.279 79.8271 143.885C75.7272 144.806 77.466 151.024 81.5604 150.103Z" fill="#FF9FA0"/>
<path fill-rule="evenodd" clip-rule="evenodd" d="M259.388 242.43C261.316 234.103 269.77 230.824 277.422 229.261C281.538 228.418 279.792 222.2 275.688 223.042C265.796 225.061 255.543 230.17 253.1 240.715C252.161 244.764 258.448 246.485 259.388 242.43Z" fill="#FF9FA0"/>
<path fill-rule="evenodd" clip-rule="evenodd" d="M260.13 97.9881C266.942 86.8063 279.235 79.3275 292.673 82.1639C304.705 84.7094 311.821 95.0367 310.36 106.982C309.857 111.103 316.382 111.055 316.881 106.982C318.667 92.3579 309.254 79.7215 295.014 76.0851C278.647 71.9094 262.844 81.0366 254.5 94.7336C252.324 98.3093 257.964 101.552 260.13 97.9881Z" fill="#FF9FA0"/>
<path fill-rule="evenodd" clip-rule="evenodd" d="M140.627 108.279C143.574 95.1639 152.711 85.0003 166.425 82.8972C178.959 80.97 191.064 88.0064 196.786 98.8609C198.731 102.552 204.358 99.2851 202.416 95.6063C195.497 82.4791 181.09 74.7579 166.183 76.473C149.724 78.37 137.853 90.9275 134.34 106.564C133.429 110.618 139.715 112.34 140.627 108.279Z" fill="#FF9FA0"/>
<path fill-rule="evenodd" clip-rule="evenodd" d="M141.878 39.3701C150.519 26.7822 165.743 20.1459 180.898 20.4913C184.474 20.5762 184.466 15.0914 180.898 15.0065C163.712 14.6187 146.829 22.4187 137.093 36.6004C135.078 39.5398 139.884 42.2792 141.878 39.3701Z" fill="#FFE1E2"/>
<path fill-rule="evenodd" clip-rule="evenodd" d="M76.151 88.1457C83.7451 72.8609 98.5289 63.7397 115.143 60.6428C118.652 59.9943 117.162 54.7095 113.67 55.3579C95.782 58.6852 79.5306 68.9398 71.3651 85.3822C69.7954 88.5397 74.5739 91.3215 76.151 88.1457Z" fill="#FFE1E2"/>
<path fill-rule="evenodd" clip-rule="evenodd" d="M245.654 24.4974C252.919 19.4186 260.941 16.0974 269.976 17.0792C273.526 17.4671 273.488 11.9762 269.976 11.5944C260.084 10.5217 250.823 14.1944 242.857 19.7641C239.963 21.7883 242.728 26.5458 245.654 24.4974Z" fill="#FFE1E2"/>
<path fill-rule="evenodd" clip-rule="evenodd" d="M83.9692 158.849C89.0851 159.558 94.0541 160.952 97.6353 164.831C100.591 168.031 101.354 172.752 101.539 176.915C101.695 180.437 107.238 180.455 107.081 176.915C106.837 171.406 105.65 165.776 101.978 161.449C97.8282 156.564 91.6649 154.418 85.4422 153.564C81.948 153.079 80.4413 158.364 83.9692 158.849Z" fill="#FFE1E2"/>
<path fill-rule="evenodd" clip-rule="evenodd" d="M151.137 105.679C153.626 101.497 156.47 97.4731 160.607 94.7458C165.143 91.7579 170.656 91.3033 175.955 91.5336C179.53 91.6912 179.516 86.2064 175.955 86.0488C169.834 85.7822 163.814 86.5822 158.433 89.6307C153.126 92.6367 149.391 97.8003 146.351 102.909C144.532 105.964 149.324 108.722 151.137 105.679Z" fill="#FFE1E2"/>
<path fill-rule="evenodd" clip-rule="evenodd" d="M270.446 99.0063C276.109 92.2851 283.316 88.8125 292.23 91.0003C295.699 91.8488 297.171 86.5578 293.703 85.7094C282.977 83.0791 273.468 86.8851 266.528 95.1336C264.258 97.8245 268.156 101.728 270.446 99.0063Z" fill="#FFE1E2"/>
<path fill-rule="evenodd" clip-rule="evenodd" d="M169.901 320.479C169.317 320.479 168.736 320.467 168.151 320.448C155.762 320.048 148.322 316.673 146.036 310.406C143.534 303.551 147.489 293.758 157.794 281.297C165.211 272.321 173.16 265.309 173.495 265.012C174.328 264.285 175.608 264.358 176.348 265.182C177.089 266.006 177.013 267.273 176.181 268.006C167.479 275.661 145.785 297.945 149.839 309.048C151.508 313.618 157.714 316.103 168.284 316.448C188.08 317.097 207.408 305.648 222.943 296.448C235.868 288.794 246.079 282.751 253.02 285.739C256.312 287.164 258.456 290.382 259.568 295.576C259.801 296.654 259.104 297.715 258.011 297.945C256.915 298.17 255.845 297.485 255.611 296.406C254.79 292.564 253.413 290.279 251.401 289.412C246.369 287.242 236.475 293.097 225.017 299.885C209.474 309.085 190.235 320.479 169.901 320.479Z" fill="#2C2E2E"/>
<path fill-rule="evenodd" clip-rule="evenodd" d="M297.157 321C295.375 321 293.484 320.927 291.482 320.776C252.236 317.764 233.03 300.848 222.709 291.764C219.166 288.642 215.824 286.497 214.466 286.891C213.562 287.164 212.032 289.164 209.894 297.158C209.608 298.224 208.5 298.861 207.422 298.576C206.342 298.297 205.701 297.2 205.986 296.133C208.291 287.503 210.276 283.964 213.301 283.061C216.82 282.012 220.231 284.224 225.396 288.77C235.36 297.551 253.91 313.879 291.794 316.782C300.155 317.424 310.711 316.958 313.53 311.073C318.39 300.945 298.766 277.339 291.416 269.709C290.644 268.909 290.674 267.642 291.482 266.879C292.29 266.121 293.57 266.152 294.34 266.945C297.242 269.958 324.102 298.376 317.185 312.788C314.566 318.248 307.84 321 297.157 321Z" fill="#2C2E2E"/>
<path fill-rule="evenodd" clip-rule="evenodd" d="M35.424 231.115C30.5714 231.115 25.2068 230.643 19.2774 229.564C18.2368 229.376 17.549 228.388 17.7401 227.364C17.9306 226.334 18.9271 225.649 19.9689 225.837C40.875 229.637 56.9396 226.327 67.7197 216.006C75.7554 208.309 77.73 199.34 77.7477 199.249C77.9645 198.225 78.9843 197.57 80.0133 197.782C81.0459 197.994 81.7129 198.994 81.4997 200.018C81.4146 200.424 79.3304 210.067 70.5371 218.576C64.2017 224.709 53.2997 231.115 35.424 231.115Z" fill="#2C2E2E"/>
<path fill-rule="evenodd" clip-rule="evenodd" d="M18.5161 229.582C14.4995 229.582 11.2301 225.946 11.2301 221.485C11.2301 217.018 14.4995 213.388 18.5161 213.388C22.5351 213.388 25.8051 217.018 25.8051 221.485C25.8051 225.946 22.5351 229.582 18.5161 229.582ZM18.5161 217.176C16.6113 217.176 15.0605 219.109 15.0605 221.485C15.0605 223.855 16.6113 225.788 18.5161 225.788C20.4227 225.788 21.9741 223.855 21.9741 221.485C21.9741 219.109 20.4227 217.176 18.5161 217.176Z" fill="#2C2E2E"/>
<path fill-rule="evenodd" clip-rule="evenodd" d="M18.516 229.582C18.1117 229.582 17.705 229.455 17.3578 229.194L4.58282 219.594C3.74067 218.958 3.57653 217.77 4.21718 216.933C4.85721 216.103 6.05826 215.939 6.8998 216.57L19.6754 226.176C20.5181 226.806 20.6823 227.994 20.0428 228.83C19.6649 229.321 19.0935 229.582 18.516 229.582Z" fill="#2C2E2E"/>
<path fill-rule="evenodd" clip-rule="evenodd" d="M18.5185 229.582C18.4254 229.582 18.3274 229.57 18.2331 229.558L1.63389 227.085C0.586564 226.927 -0.134931 225.964 0.02125 224.927C0.180493 223.891 1.15555 223.182 2.20104 223.333L18.8033 225.812C19.8476 225.964 20.5691 226.933 20.4123 227.964C20.2678 228.909 19.4519 229.582 18.5185 229.582Z" fill="#2C2E2E"/>
<path fill-rule="evenodd" clip-rule="evenodd" d="M419.976 231.261C412.014 231.261 405.038 229.497 399.106 225.958C384.285 217.127 381.65 200.612 381.544 199.909C381.389 198.879 382.11 197.915 383.158 197.758C384.201 197.612 385.176 198.321 385.334 199.352C385.358 199.521 387.853 214.855 401.119 222.733C411.769 229.061 426.382 229.055 444.552 222.715C445.55 222.364 446.644 222.885 446.994 223.873C447.346 224.861 446.822 225.939 445.825 226.291C436.32 229.606 427.688 231.261 419.976 231.261Z" fill="#2C2E2E"/>
<path fill-rule="evenodd" clip-rule="evenodd" d="M445.623 225.867H445.622C442.248 225.867 439.188 223.418 438.174 219.824C436.962 215.521 439.126 211.182 442.996 210.115C443.572 209.958 444.165 209.891 444.766 209.891C448.138 209.891 451.201 212.406 452.212 216C453.423 220.303 451.261 224.612 447.391 225.679C446.816 225.836 446.219 225.867 445.623 225.867ZM444.766 213.697C444.513 213.697 444.263 213.727 444.024 213.794C442.188 214.303 441.217 216.576 441.863 218.861C442.406 220.794 443.989 222.194 445.622 222.194C445.873 222.194 446.12 222.158 446.362 222.091C448.198 221.582 449.167 219.309 448.524 217.024C447.98 215.097 446.398 213.697 444.766 213.697Z" fill="#2C2E2E"/>
<path fill-rule="evenodd" clip-rule="evenodd" d="M446.658 225.958C446.204 225.958 445.748 225.8 445.385 225.479C444.594 224.782 444.526 223.582 445.23 222.8L455.749 211.14C456.457 210.358 457.667 210.291 458.454 210.988C459.245 211.685 459.311 212.879 458.606 213.661L448.088 225.321C447.709 225.739 447.184 225.958 446.658 225.958Z" fill="#2C2E2E"/>
<path fill-rule="evenodd" clip-rule="evenodd" d="M446.876 225.812C446.094 225.812 445.361 225.339 445.078 224.57C444.713 223.588 445.225 222.497 446.215 222.139L461.701 216.533C462.693 216.176 463.794 216.679 464.157 217.661C464.523 218.643 464.011 219.733 463.017 220.091L447.535 225.697C447.315 225.776 447.093 225.812 446.876 225.812Z" fill="#2C2E2E"/>
<path fill-rule="evenodd" clip-rule="evenodd" d="M231.378 203.6C221.408 203.6 212.667 200.212 207.583 194.273C206.819 193.376 206.93 192.036 207.836 191.279C208.741 190.521 210.094 190.636 210.859 191.527C215.588 197.055 224.318 199.939 234.214 199.255C243.677 198.594 251.923 194.818 255.223 189.636C255.852 188.643 257.174 188.345 258.18 188.97C259.182 189.594 259.485 190.903 258.851 191.897C254.789 198.285 245.463 202.727 234.512 203.491C233.455 203.564 232.41 203.6 231.378 203.6Z" fill="#2C2E2E"/>
<path fill-rule="evenodd" clip-rule="evenodd" d="M130.076 171.8C130.12 176.394 137.98 180.049 147.643 179.97C157.3 179.885 165.1 176.091 165.059 171.497C165.018 166.909 157.154 163.249 147.495 163.333C137.834 163.412 130.036 167.206 130.076 171.8Z" fill="#FF7992"/>
<path fill-rule="evenodd" clip-rule="evenodd" d="M293.649 169.618C294.109 174.188 302.275 177.115 311.891 176.164C321.501 175.212 328.922 170.739 328.459 166.17C327.996 161.6 319.831 158.667 310.216 159.618C300.605 160.57 293.187 165.049 293.649 169.618Z" fill="#FF7992"/>
<path fill-rule="evenodd" clip-rule="evenodd" d="M273.065 158.267C264.562 158.267 257.415 154.776 253.041 148.2C252.511 147.4 252.734 146.327 253.543 145.794C254.35 145.273 255.44 145.491 255.971 146.291C263.519 157.637 277.755 154.673 281.938 153.491C290.614 151.055 297.771 145.509 297.893 141.134C297.922 140.176 298.699 139.412 299.697 139.449C300.663 139.473 301.427 140.273 301.399 141.23C301.233 147.206 293.278 153.915 282.898 156.836C279.483 157.794 276.183 158.267 273.065 158.267Z" fill="#2C2E2E"/>
<path fill-rule="evenodd" clip-rule="evenodd" d="M185.133 160.285C183.357 160.285 181.596 160.164 179.886 159.927C169.18 158.461 161.513 152.885 160.356 145.727C160.204 144.782 160.853 143.891 161.811 143.74C162.765 143.588 163.665 144.23 163.819 145.182C164.727 150.794 171.223 155.237 180.366 156.491C189.407 157.734 200.855 155.4 204.64 147.34C205.046 146.473 206.088 146.091 206.968 146.497C207.847 146.897 208.228 147.934 207.82 148.8C203.995 156.952 194.397 160.285 185.133 160.285Z" fill="#2C2E2E"/>
</svg>
